<svg xmlns="http://www.w3.org/2000/svg" xmlns:xlink="http://www.w3.org/1999/xlink" contentStyleType="text/css" height="604px" preserveAspectRatio="none" style="width:584px;height:604px;background:#FFFFFF;" version="1.1" viewBox="0 0 584 604" width="584px" zoomAndPan="magnify"><defs/><g><rect fill="none" height="20.9531" style="stroke:none;stroke-width:1;" width="551.8335" x="15" y="12.7451"/><ellipse cx="144.4043" cy="48.6982" fill="#222222" rx="10" ry="10" style="stroke:#222222;stroke-width:1;"/><rect fill="#F1F1F1" height="33.9688" rx="12.5" ry="12.5" style="stroke:#181818;stroke-width:0.5;" width="120.4414" x="84.1836" y="78.6982"/><text fill="#000000" font-family="sans-serif" font-size="12" lengthAdjust="spacing" textLength="100.4414" x="94.1836" y="99.8369">Browse products</text><rect fill="#F1F1F1" height="33.9688" rx="12.5" ry="12.5" style="stroke:#181818;stroke-width:0.5;" width="86.709" x="101.0498" y="132.667"/><text fill="#000000" font-family="sans-serif" font-size="12" lengthAdjust="spacing" textLength="66.709" x="111.0498" y="153.8057">Add to cart</text><rect fill="#F1F1F1" height="33.9688" rx="12.5" ry="12.5" style="stroke:#181818;stroke-width:0.5;" width="76.5664" x="106.1211" y="186.6357"/><text fill="#000000" font-family="sans-serif" font-size="12" lengthAdjust="spacing" textLength="56.5664" x="116.1211" y="207.7744">Checkout</text><rect fill="#F1F1F1" height="33.9688" rx="12.5" ry="12.5" style="stroke:#181818;stroke-width:0.5;" width="103.543" x="21" y="500.4795"/><text fill="#000000" font-family="sans-serif" font-size="12" lengthAdjust="spacing" textLength="83.543" x="31" y="521.6182">Receive order</text><ellipse cx="72.7715" cy="565.4482" fill="none" rx="11" ry="11" style="stroke:#222222;stroke-width:1;"/><ellipse cx="72.7715" cy="565.4482" fill="#222222" rx="6" ry="6" style="stroke:#222222;stroke-width:1;"/><rect fill="#F1F1F1" height="33.9688" rx="12.5" ry="12.5" style="stroke:#181818;stroke-width:0.5;" width="142.9883" x="144.543" y="338.5732"/><text fill="#000000" font-family="sans-serif" font-size="12" lengthAdjust="spacing" textLength="122.9883" x="154.543" y="359.7119">Show payment error</text><ellipse cx="216.0371" cy="403.542" fill="none" rx="11" ry="11" style="stroke:#222222;stroke-width:1;"/><ellipse cx="216.0371" cy="403.542" fill="#222222" rx="6" ry="6" style="stroke:#222222;stroke-width:1;"/><line style="stroke:#000000;stroke-width:1.5;" x1="15" x2="15" y1="12.7451" y2="592.4482"/><rect fill="#F1F1F1" height="33.9688" rx="12.5" ry="12.5" style="stroke:#181818;stroke-width:0.5;" width="123.2656" x="313.4805" y="240.6045"/><text fill="#000000" font-family="sans-serif" font-size="12" lengthAdjust="spacing" textLength="103.2656" x="323.4805" y="261.7432">Process payment</text><polygon fill="#F1F1F1" points="338.1843,294.5732,412.0422,294.5732,424.0422,306.5732,412.0422,318.5732,338.1843,318.5732,326.1843,306.5732,338.1843,294.5732" style="stroke:#181818;stroke-width:0.5;"/><text fill="#000000" font-family="sans-serif" font-size="11" lengthAdjust="spacing" textLength="73.8579" x="338.1843" y="310.3813">Payment OK?</text><text fill="#000000" font-family="sans-serif" font-size="11" lengthAdjust="spacing" textLength="19.0083" x="307.176" y="303.979">yes</text><text fill="#000000" font-family="sans-serif" font-size="11" lengthAdjust="spacing" textLength="13.7017" x="424.0422" y="303.979">no</text><line style="stroke:#000000;stroke-width:1.5;" x1="291.5313" x2="291.5313" y1="12.7451" y2="592.4482"/><rect fill="#F1F1F1" height="33.9688" rx="12.5" ry="12.5" style="stroke:#181818;stroke-width:0.5;" width="81.2949" x="469.5332" y="338.5732"/><text fill="#000000" font-family="sans-serif" font-size="12" lengthAdjust="spacing" textLength="61.2949" x="479.5332" y="359.7119">Pick items</text><rect fill="#F1F1F1" height="33.9688" rx="12.5" ry="12.5" style="stroke:#181818;stroke-width:0.5;" width="84.1602" x="468.1006" y="392.542"/><text fill="#000000" font-family="sans-serif" font-size="12" lengthAdjust="spacing" textLength="64.1602" x="478.1006" y="413.6807">Pack order</text><rect fill="#F1F1F1" height="33.9688" rx="12.5" ry="12.5" style="stroke:#181818;stroke-width:0.5;" width="82.1973" x="469.082" y="446.5107"/><text fill="#000000" font-family="sans-serif" font-size="12" lengthAdjust="spacing" textLength="62.1973" x="479.082" y="467.6494">Ship order</text><line style="stroke:#000000;stroke-width:1.5;" x1="453.3887" x2="453.3887" y1="12.7451" y2="592.4482"/><line style="stroke:#000000;stroke-width:1.5;" x1="564.9727" x2="564.9727" y1="12.7451" y2="592.4482"/><line style="stroke:#181818;stroke-width:1;" x1="144.4043" x2="144.4043" y1="58.6982" y2="78.6982"/><polygon fill="#181818" points="140.4043,68.6982,144.4043,78.6982,148.4043,68.6982,144.4043,72.6982" style="stroke:#181818;stroke-width:1;"/><line style="stroke:#181818;stroke-width:1;" x1="144.4043" x2="144.4043" y1="112.667" y2="132.667"/><polygon fill="#181818" points="140.4043,122.667,144.4043,132.667,148.4043,122.667,144.4043,126.667" style="stroke:#181818;stroke-width:1;"/><line style="stroke:#181818;stroke-width:1;" x1="144.4043" x2="144.4043" y1="166.6357" y2="186.6357"/><polygon fill="#181818" points="140.4043,176.6357,144.4043,186.6357,148.4043,176.6357,144.4043,180.6357" style="stroke:#181818;stroke-width:1;"/><line style="stroke:#181818;stroke-width:1;" x1="72.7715" x2="72.7715" y1="534.4482" y2="554.4482"/><polygon fill="#181818" points="68.7715,544.4482,72.7715,554.4482,76.7715,544.4482,72.7715,548.4482" style="stroke:#181818;stroke-width:1;"/><line style="stroke:#181818;stroke-width:1;" x1="216.0371" x2="216.0371" y1="372.542" y2="392.542"/><polygon fill="#181818" points="212.0371,382.542,216.0371,392.542,220.0371,382.542,216.0371,386.542" style="stroke:#181818;stroke-width:1;"/><line style="stroke:#181818;stroke-width:1;" x1="375.1133" x2="375.1133" y1="274.5732" y2="294.5732"/><polygon fill="#181818" points="371.1133,284.5732,375.1133,294.5732,379.1133,284.5732,375.1133,288.5732" style="stroke:#181818;stroke-width:1;"/><line style="stroke:#181818;stroke-width:1;" x1="510.1807" x2="510.1807" y1="372.542" y2="392.542"/><polygon fill="#181818" points="506.1807,382.542,510.1807,392.542,514.1807,382.542,510.1807,386.542" style="stroke:#181818;stroke-width:1;"/><line style="stroke:#181818;stroke-width:1;" x1="510.1807" x2="510.1807" y1="426.5107" y2="446.5107"/><polygon fill="#181818" points="506.1807,436.5107,510.1807,446.5107,514.1807,436.5107,510.1807,440.5107" style="stroke:#181818;stroke-width:1;"/><line style="stroke:#181818;stroke-width:1;" x1="144.4043" x2="144.4043" y1="220.6045" y2="225.6045"/><line style="stroke:#181818;stroke-width:1;" x1="144.4043" x2="375.1133" y1="225.6045" y2="225.6045"/><line style="stroke:#181818;stroke-width:1;" x1="375.1133" x2="375.1133" y1="225.6045" y2="240.6045"/><polygon fill="#181818" points="371.1133,230.6045,375.1133,240.6045,379.1133,230.6045,375.1133,234.6045" style="stroke:#181818;stroke-width:1;"/><line style="stroke:#181818;stroke-width:1;" x1="510.1807" x2="510.1807" y1="480.4795" y2="485.4795"/><line style="stroke:#181818;stroke-width:1;" x1="510.1807" x2="72.7715" y1="485.4795" y2="485.4795"/><line style="stroke:#181818;stroke-width:1;" x1="72.7715" x2="72.7715" y1="485.4795" y2="500.4795"/><polygon fill="#181818" points="68.7715,490.4795,72.7715,500.4795,76.7715,490.4795,72.7715,494.4795" style="stroke:#181818;stroke-width:1;"/><line style="stroke:#181818;stroke-width:1;" x1="326.1843" x2="314.1843" y1="306.5732" y2="306.5732"/><line style="stroke:#181818;stroke-width:1;" x1="314.1843" x2="314.1843" y1="306.5732" y2="324.5732"/><line style="stroke:#181818;stroke-width:1;" x1="314.1843" x2="510.1807" y1="324.5732" y2="324.5732"/><line style="stroke:#181818;stroke-width:1;" x1="510.1807" x2="510.1807" y1="324.5732" y2="338.5732"/><polygon fill="#181818" points="506.1807,328.5732,510.1807,338.5732,514.1807,328.5732,510.1807,332.5732" style="stroke:#181818;stroke-width:1;"/><line style="stroke:#181818;stroke-width:1;" x1="424.0422" x2="436.0422" y1="306.5732" y2="306.5732"/><line style="stroke:#181818;stroke-width:1;" x1="436.0422" x2="436.0422" y1="306.5732" y2="324.5732"/><line style="stroke:#181818;stroke-width:1;" x1="436.0422" x2="216.0371" y1="324.5732" y2="324.5732"/><line style="stroke:#181818;stroke-width:1;" x1="216.0371" x2="216.0371" y1="324.5732" y2="338.5732"/><polygon fill="#181818" points="212.0371,328.5732,216.0371,338.5732,220.0371,328.5732,216.0371,332.5732" style="stroke:#181818;stroke-width:1;"/><text fill="#000000" font-family="sans-serif" font-size="18" lengthAdjust="spacing" textLength="87.4336" x="109.5488" y="29.4531">Customer</text><text fill="#000000" font-family="sans-serif" font-size="18" lengthAdjust="spacing" textLength="151.8574" x="296.5313" y="29.4531">Payment Service</text><text fill="#000000" font-family="sans-serif" font-size="18" lengthAdjust="spacing" textLength="101.584" x="458.3887" y="29.4531">Warehouse</text><!--SRC=[RKyx3i8m3Drp2e_j5Sg0W961YWxCLV9G8cXTEMaHKWwFeLI0X2VxVMo_l1jZuWwIJKoj95DjXMyHD0YxqQQuCjN6EKfCLccTTXxsmgEs9jVjlKEVg85CmIARgXQsY966cL5HE5Enw0xxTKd9ewVYZbWQqigdLk1vZ6f_pbKTx8L2GgUtPw1LWCL1ta3Zmx00yuvFYfVW28imuTka_61mrMH5p-LVL-FvjZnE4E4VQ-_2-G40]--></g></svg>