<svg xmlns="http://www.w3.org/2000/svg" xmlns:xlink="http://www.w3.org/1999/xlink" contentStyleType="text/css" height="492px" preserveAspectRatio="none" style="width:419px;height:492px;background:#FFFFFF;" version="1.1" viewBox="0 0 419 492" width="419px" zoomAndPan="magnify"><defs/><g><ellipse cx="209.5488" cy="20" fill="#222222" rx="10" ry="10" style="stroke:#222222;stroke-width:1;"/><rect fill="#F1F1F1" height="33.9688" rx="12.5" ry="12.5" style="stroke:#181818;stroke-width:0.5;" width="103.543" x="157.7773" y="50"/><text fill="#000000" font-family="sans-serif" font-size="12" lengthAdjust="spacing" textLength="83.543" x="167.7773" y="71.1387">Initialize build</text><rect fill="#555555" height="6" rx="2.5" ry="2.5" style="stroke:#555555;stroke-width:1;" width="397.0977" x="11" y="103.9688"/><rect fill="#F1F1F1" height="33.9688" rx="12.5" ry="12.5" style="stroke:#181818;stroke-width:0.5;" width="113.0059" x="23" y="129.9688"/><text fill="#000000" font-family="sans-serif" font-size="12" lengthAdjust="spacing" textLength="93.0059" x="33" y="151.1074">Compile source</text><rect fill="#F1F1F1" height="33.9688" rx="12.5" ry="12.5" style="stroke:#181818;stroke-width:0.5;" width="78.6582" x="164.0059" y="129.9688"/><text fill="#000000" font-family="sans-serif" font-size="12" lengthAdjust="spacing" textLength="58.6582" x="174.0059" y="151.1074">Run linter</text><rect fill="#F1F1F1" height="33.9688" rx="12.5" ry="12.5" style="stroke:#181818;stroke-width:0.5;" width="125.4336" x="270.6641" y="129.9688"/><text fill="#000000" font-family="sans-serif" font-size="12" lengthAdjust="spacing" textLength="105.4336" x="280.6641" y="151.1074">Run type checker</text><rect fill="#555555" height="6" rx="2.5" ry="2.5" style="stroke:#555555;stroke-width:1;" width="397.0977" x="11" y="183.9375"/><rect fill="#F1F1F1" height="33.9688" rx="12.5" ry="12.5" style="stroke:#181818;stroke-width:0.5;" width="103.7246" x="157.6865" y="209.9375"/><text fill="#000000" font-family="sans-serif" font-size="12" lengthAdjust="spacing" textLength="83.7246" x="167.6865" y="231.0762">Run unit tests</text><polygon fill="#F1F1F1" points="178.5952,263.9063,240.5024,263.9063,252.5024,275.9063,240.5024,287.9063,178.5952,287.9063,166.5952,275.9063,178.5952,263.9063" style="stroke:#181818;stroke-width:0.5;"/><text fill="#000000" font-family="sans-serif" font-size="11" lengthAdjust="spacing" textLength="61.9072" x="178.5952" y="279.7144">All passed?</text><text fill="#000000" font-family="sans-serif" font-size="11" lengthAdjust="spacing" textLength="19.0083" x="147.5869" y="273.312">yes</text><text fill="#000000" font-family="sans-serif" font-size="11" lengthAdjust="spacing" textLength="13.7017" x="252.5024" y="273.312">no</text><rect fill="#F1F1F1" height="33.9688" rx="12.5" ry="12.5" style="stroke:#181818;stroke-width:0.5;" width="137.5742" x="55.4927" y="297.9063"/><text fill="#000000" font-family="sans-serif" font-size="12" lengthAdjust="spacing" textLength="117.5742" x="65.4927" y="319.0449">Build Docker image</text><rect fill="#F1F1F1" height="33.9688" rx="12.5" ry="12.5" style="stroke:#181818;stroke-width:0.5;" width="114.6348" x="66.9624" y="351.875"/><text fill="#000000" font-family="sans-serif" font-size="12" lengthAdjust="spacing" textLength="94.6348" x="76.9624" y="373.0137">Push to registry</text><rect fill="#F1F1F1" height="33.9688" rx="12.5" ry="12.5" style="stroke:#181818;stroke-width:0.5;" width="126.1777" x="61.1909" y="405.8438"/><text fill="#000000" font-family="sans-serif" font-size="12" lengthAdjust="spacing" textLength="106.1777" x="71.1909" y="426.9824">Deploy to staging</text><ellipse cx="124.2798" cy="470.8125" fill="none" rx="11" ry="11" style="stroke:#222222;stroke-width:1;"/><ellipse cx="124.2798" cy="470.8125" fill="#222222" rx="6" ry="6" style="stroke:#222222;stroke-width:1;"/><rect fill="#F1F1F1" height="33.9688" rx="12.5" ry="12.5" style="stroke:#181818;stroke-width:0.5;" width="163.502" x="213.0669" y="297.9063"/><text fill="#000000" font-family="sans-serif" font-size="12" lengthAdjust="spacing" textLength="143.502" x="223.0669" y="319.0449">Send failure notification</text><ellipse cx="294.8179" cy="362.875" fill="none" rx="11" ry="11" style="stroke:#222222;stroke-width:1;"/><ellipse cx="294.8179" cy="362.875" fill="#222222" rx="6" ry="6" style="stroke:#222222;stroke-width:1;"/><line style="stroke:#181818;stroke-width:1;" x1="209.5488" x2="209.5488" y1="30" y2="50"/><polygon fill="#181818" points="205.5488,40,209.5488,50,213.5488,40,209.5488,44" style="stroke:#181818;stroke-width:1;"/><line style="stroke:#181818;stroke-width:1;" x1="79.5029" x2="79.5029" y1="109.9688" y2="129.9688"/><polygon fill="#181818" points="75.5029,119.9688,79.5029,129.9688,83.5029,119.9688,79.5029,123.9688" style="stroke:#181818;stroke-width:1;"/><line style="stroke:#181818;stroke-width:1;" x1="203.335" x2="203.335" y1="109.9688" y2="129.9688"/><polygon fill="#181818" points="199.335,119.9688,203.335,129.9688,207.335,119.9688,203.335,123.9688" style="stroke:#181818;stroke-width:1;"/><line style="stroke:#181818;stroke-width:1;" x1="333.3809" x2="333.3809" y1="109.9688" y2="129.9688"/><polygon fill="#181818" points="329.3809,119.9688,333.3809,129.9688,337.3809,119.9688,333.3809,123.9688" style="stroke:#181818;stroke-width:1;"/><line style="stroke:#181818;stroke-width:1;" x1="79.5029" x2="79.5029" y1="163.9375" y2="183.9375"/><polygon fill="#181818" points="75.5029,173.9375,79.5029,183.9375,83.5029,173.9375,79.5029,177.9375" style="stroke:#181818;stroke-width:1;"/><line style="stroke:#181818;stroke-width:1;" x1="203.335" x2="203.335" y1="163.9375" y2="183.9375"/><polygon fill="#181818" points="199.335,173.9375,203.335,183.9375,207.335,173.9375,203.335,177.9375" style="stroke:#181818;stroke-width:1;"/><line style="stroke:#181818;stroke-width:1;" x1="333.3809" x2="333.3809" y1="163.9375" y2="183.9375"/><polygon fill="#181818" points="329.3809,173.9375,333.3809,183.9375,337.3809,173.9375,333.3809,177.9375" style="stroke:#181818;stroke-width:1;"/><line style="stroke:#181818;stroke-width:1;" x1="209.5488" x2="209.5488" y1="83.9688" y2="103.9688"/><polygon fill="#181818" points="205.5488,93.9688,209.5488,103.9688,213.5488,93.9688,209.5488,97.9688" style="stroke:#181818;stroke-width:1;"/><line style="stroke:#181818;stroke-width:1;" x1="209.5488" x2="209.5488" y1="189.9375" y2="209.9375"/><polygon fill="#181818" points="205.5488,199.9375,209.5488,209.9375,213.5488,199.9375,209.5488,203.9375" style="stroke:#181818;stroke-width:1;"/><line style="stroke:#181818;stroke-width:1;" x1="124.2798" x2="124.2798" y1="331.875" y2="351.875"/><polygon fill="#181818" points="120.2798,341.875,124.2798,351.875,128.2798,341.875,124.2798,345.875" style="stroke:#181818;stroke-width:1;"/><line style="stroke:#181818;stroke-width:1;" x1="124.2798" x2="124.2798" y1="385.8438" y2="405.8438"/><polygon fill="#181818" points="120.2798,395.8438,124.2798,405.8438,128.2798,395.8438,124.2798,399.8438" style="stroke:#181818;stroke-width:1;"/><line style="stroke:#181818;stroke-width:1;" x1="124.2798" x2="124.2798" y1="439.8125" y2="459.8125"/><polygon fill="#181818" points="120.2798,449.8125,124.2798,459.8125,128.2798,449.8125,124.2798,453.8125" style="stroke:#181818;stroke-width:1;"/><line style="stroke:#181818;stroke-width:1;" x1="294.8179" x2="294.8179" y1="331.875" y2="351.875"/><polygon fill="#181818" points="290.8179,341.875,294.8179,351.875,298.8179,341.875,294.8179,345.875" style="stroke:#181818;stroke-width:1;"/><line style="stroke:#181818;stroke-width:1;" x1="166.5952" x2="124.2798" y1="275.9063" y2="275.9063"/><line style="stroke:#181818;stroke-width:1;" x1="124.2798" x2="124.2798" y1="275.9063" y2="297.9063"/><polygon fill="#181818" points="120.2798,287.9063,124.2798,297.9063,128.2798,287.9063,124.2798,291.9063" style="stroke:#181818;stroke-width:1;"/><line style="stroke:#181818;stroke-width:1;" x1="252.5024" x2="294.8179" y1="275.9063" y2="275.9063"/><line style="stroke:#181818;stroke-width:1;" x1="294.8179" x2="294.8179" y1="275.9063" y2="297.9063"/><polygon fill="#181818" points="290.8179,287.9063,294.8179,297.9063,298.8179,287.9063,294.8179,291.9063" style="stroke:#181818;stroke-width:1;"/><line style="stroke:#181818;stroke-width:1;" x1="209.5488" x2="209.5488" y1="243.9063" y2="263.9063"/><polygon fill="#181818" points="205.5488,253.9063,209.5488,263.9063,213.5488,253.9063,209.5488,257.9063" style="stroke:#181818;stroke-width:1;"/><!--SRC=[ROunSiD024NxFGMbV0Mxo2HnaowJd01BQCKOmyx25ihf8wrSf0ZbV_3u7bWZdJ-KWr7uX-3MMAPBIhFLUu9jpk_sA2m4RgsETEa4C2FhmR-QWh06rVzPh8LWN6Yyxnka4tHtwh1jdo78mxUVFCFmAW85tMbwEK4if32ivAT3zxQNWwljAk07vgrE1v_D5mY3IfazwlgChrJ4rXruO6RDH-vX9P4umQ3sL7_tOiZIAe5QyCmZ1fl-FT69vry0]--></g></svg>