<svg xmlns="http://www.w3.org/2000/svg" xmlns:xlink="http://www.w3.org/1999/xlink" contentStyleType="text/css" height="416px" preserveAspectRatio="none" style="width:260px;height:416px;background:#FFFFFF;" version="1.1" viewBox="0 0 260 416" width="260px" zoomAndPan="magnify"><defs/><g><ellipse cx="138.0518" cy="20" fill="#222222" rx="10" ry="10" style="stroke:#222222;stroke-width:1;"/><rect fill="#F1F1F1" height="33.9688" rx="12.5" ry="12.5" style="stroke:#181818;stroke-width:0.5;" width="117.2129" x="79.4453" y="50"/><text fill="#000000" font-family="sans-serif" font-size="12" lengthAdjust="spacing" textLength="97.2129" x="89.4453" y="71.1387">Receive request</text><rect fill="#F1F1F1" height="33.9688" rx="12.5" ry="12.5" style="stroke:#181818;stroke-width:0.5;" width="103.9707" x="86.0664" y="103.9688"/><text fill="#000000" font-family="sans-serif" font-size="12" lengthAdjust="spacing" textLength="83.9707" x="96.0664" y="125.1074">Validate input</text><polygon fill="#F1F1F1" points="121.4524,157.9375,154.6511,157.9375,166.6511,169.9375,154.6511,181.9375,121.4524,181.9375,109.4524,169.9375,121.4524,157.9375" style="stroke:#181818;stroke-width:0.5;"/><text fill="#000000" font-family="sans-serif" font-size="11" lengthAdjust="spacing" textLength="33.1987" x="121.4524" y="173.7456">Valid?</text><text fill="#000000" font-family="sans-serif" font-size="11" lengthAdjust="spacing" textLength="19.0083" x="90.4441" y="167.3433">yes</text><text fill="#000000" font-family="sans-serif" font-size="11" lengthAdjust="spacing" textLength="13.7017" x="166.6511" y="167.3433">no</text><rect fill="#F1F1F1" height="33.9688" rx="12.5" ry="12.5" style="stroke:#181818;stroke-width:0.5;" width="96.8398" x="24.9629" y="191.9375"/><text fill="#000000" font-family="sans-serif" font-size="12" lengthAdjust="spacing" textLength="76.8398" x="34.9629" y="213.0762">Process data</text><rect fill="#F1F1F1" height="33.9688" rx="12.5" ry="12.5" style="stroke:#181818;stroke-width:0.5;" width="124.7656" x="11" y="245.9063"/><text fill="#000000" font-family="sans-serif" font-size="12" lengthAdjust="spacing" textLength="104.7656" x="21" y="267.0449">Save to database</text><rect fill="#F1F1F1" height="33.9688" rx="12.5" ry="12.5" style="stroke:#181818;stroke-width:0.5;" width="111.3242" x="17.7207" y="299.875"/><text fill="#000000" font-family="sans-serif" font-size="12" lengthAdjust="spacing" textLength="91.3242" x="27.7207" y="321.0137">Return success</text><rect fill="#F1F1F1" height="33.9688" rx="12.5" ry="12.5" style="stroke:#181818;stroke-width:0.5;" width="93.9102" x="155.7656" y="191.9375"/><text fill="#000000" font-family="sans-serif" font-size="12" lengthAdjust="spacing" textLength="73.9102" x="165.7656" y="213.0762">Return error</text><polygon fill="#F1F1F1" points="138.0518,339.8438,150.0518,351.8438,138.0518,363.8438,126.0518,351.8438,138.0518,339.8438" style="stroke:#181818;stroke-width:0.5;"/><ellipse cx="138.0518" cy="394.8438" fill="none" rx="11" ry="11" style="stroke:#222222;stroke-width:1;"/><ellipse cx="138.0518" cy="394.8438" fill="#222222" rx="6" ry="6" style="stroke:#222222;stroke-width:1;"/><line style="stroke:#181818;stroke-width:1;" x1="138.0518" x2="138.0518" y1="30" y2="50"/><polygon fill="#181818" points="134.0518,40,138.0518,50,142.0518,40,138.0518,44" style="stroke:#181818;stroke-width:1;"/><line style="stroke:#181818;stroke-width:1;" x1="138.0518" x2="138.0518" y1="83.9688" y2="103.9688"/><polygon fill="#181818" points="134.0518,93.9688,138.0518,103.9688,142.0518,93.9688,138.0518,97.9688" style="stroke:#181818;stroke-width:1;"/><line style="stroke:#181818;stroke-width:1;" x1="73.3828" x2="73.3828" y1="225.9063" y2="245.9063"/><polygon fill="#181818" points="69.3828,235.9063,73.3828,245.9063,77.3828,235.9063,73.3828,239.9063" style="stroke:#181818;stroke-width:1;"/><line style="stroke:#181818;stroke-width:1;" x1="73.3828" x2="73.3828" y1="279.875" y2="299.875"/><polygon fill="#181818" points="69.3828,289.875,73.3828,299.875,77.3828,289.875,73.3828,293.875" style="stroke:#181818;stroke-width:1;"/><line style="stroke:#181818;stroke-width:1;" x1="109.4524" x2="73.3828" y1="169.9375" y2="169.9375"/><line style="stroke:#181818;stroke-width:1;" x1="73.3828" x2="73.3828" y1="169.9375" y2="191.9375"/><polygon fill="#181818" points="69.3828,181.9375,73.3828,191.9375,77.3828,181.9375,73.3828,185.9375" style="stroke:#181818;stroke-width:1;"/><line style="stroke:#181818;stroke-width:1;" x1="166.6511" x2="202.7207" y1="169.9375" y2="169.9375"/><line style="stroke:#181818;stroke-width:1;" x1="202.7207" x2="202.7207" y1="169.9375" y2="191.9375"/><polygon fill="#181818" points="198.7207,181.9375,202.7207,191.9375,206.7207,181.9375,202.7207,185.9375" style="stroke:#181818;stroke-width:1;"/><line style="stroke:#181818;stroke-width:1;" x1="73.3828" x2="73.3828" y1="333.8438" y2="351.8438"/><line style="stroke:#181818;stroke-width:1;" x1="73.3828" x2="126.0518" y1="351.8438" y2="351.8438"/><polygon fill="#181818" points="116.0518,347.8438,126.0518,351.8438,116.0518,355.8438,120.0518,351.8438" style="stroke:#181818;stroke-width:1;"/><line style="stroke:#181818;stroke-width:1;" x1="202.7207" x2="202.7207" y1="225.9063" y2="351.8438"/><line style="stroke:#181818;stroke-width:1;" x1="202.7207" x2="150.0518" y1="351.8438" y2="351.8438"/><polygon fill="#181818" points="160.0518,347.8438,150.0518,351.8438,160.0518,355.8438,156.0518,351.8438" style="stroke:#181818;stroke-width:1;"/><line style="stroke:#181818;stroke-width:1;" x1="138.0518" x2="138.0518" y1="137.9375" y2="157.9375"/><polygon fill="#181818" points="134.0518,147.9375,138.0518,157.9375,142.0518,147.9375,138.0518,151.9375" style="stroke:#181818;stroke-width:1;"/><line style="stroke:#181818;stroke-width:1;" x1="138.0518" x2="138.0518" y1="363.8438" y2="383.8438"/><polygon fill="#181818" points="134.0518,373.8438,138.0518,383.8438,142.0518,373.8438,138.0518,377.8438" style="stroke:#181818;stroke-width:1;"/><!--SRC=[LSon3i8m30JGtL_XiVc5PE0NK97OJNeLaQgas0uIVqyeBDpuJdVceavnHaPvWXMF3lD4yIfRMSJ1fUvz09MLfmDFWVsEojCB5eX7ubbRXXcFWQGlNMJSUJle9eOVp_2kbQtdpo0HDWDFjOM_6gfDHrcNiXAPj_qD]--></g></svg>