<svg xmlns="http://www.w3.org/2000/svg" xmlns:xlink="http://www.w3.org/1999/xlink" contentStyleType="text/css" height="734px" preserveAspectRatio="none" style="width:299px;height:734px;background:#FFFFFF;" version="1.1" viewBox="0 0 299 734" width="299px" zoomAndPan="magnify"><defs/><g><ellipse cx="110.83" cy="16" fill="#222222" rx="10" ry="10" style="stroke:#222222;stroke-width:1;"/><g id="Draft"><rect fill="#F1F1F1" height="50" rx="12.5" ry="12.5" style="stroke:#181818;stroke-width:0.5;" width="55.5332" x="83.06" y="87"/><line style="stroke:#181818;stroke-width:0.5;" x1="83.06" x2="138.5932" y1="113.2969" y2="113.2969"/><text fill="#000000" font-family="sans-serif" font-size="14" lengthAdjust="spacing" textLength="35.5332" x="93.06" y="104.9951">Draft</text></g><g id="Review"><rect fill="#F1F1F1" height="50" rx="12.5" ry="12.5" style="stroke:#181818;stroke-width:0.5;" width="70.5791" x="63.54" y="214"/><line style="stroke:#181818;stroke-width:0.5;" x1="63.54" x2="134.1191" y1="240.2969" y2="240.2969"/><text fill="#000000" font-family="sans-serif" font-size="14" lengthAdjust="spacing" textLength="50.5791" x="73.54" y="231.9951">Review</text></g><g id="Approved"><rect fill="#F1F1F1" height="50" rx="12.5" ry="12.5" style="stroke:#181818;stroke-width:0.5;" width="87.457" x="43.1" y="341"/><line style="stroke:#181818;stroke-width:0.5;" x1="43.1" x2="130.557" y1="367.2969" y2="367.2969"/><text fill="#000000" font-family="sans-serif" font-size="14" lengthAdjust="spacing" textLength="67.457" x="53.1" y="358.9951">Approved</text></g><g id="Rejected"><rect fill="#F1F1F1" height="50" rx="12.5" ry="12.5" style="stroke:#181818;stroke-width:0.5;" width="81.5303" x="186.06" y="341"/><line style="stroke:#181818;stroke-width:0.5;" x1="186.06" x2="267.5903" y1="367.2969" y2="367.2969"/><text fill="#000000" font-family="sans-serif" font-size="14" lengthAdjust="spacing" textLength="61.5303" x="196.06" y="358.9951">Rejected</text></g><g id="Published"><rect fill="#F1F1F1" height="50" rx="12.5" ry="12.5" style="stroke:#181818;stroke-width:0.5;" width="87.6484" x="43" y="468"/><line style="stroke:#181818;stroke-width:0.5;" x1="43" x2="130.6484" y1="494.2969" y2="494.2969"/><text fill="#000000" font-family="sans-serif" font-size="14" lengthAdjust="spacing" textLength="67.6484" x="53" y="485.9951">Published</text></g><g id="Archived"><rect fill="#F1F1F1" height="50" rx="12.5" ry="12.5" style="stroke:#181818;stroke-width:0.5;" width="81.5781" x="46.04" y="595"/><line style="stroke:#181818;stroke-width:0.5;" x1="46.04" x2="127.6181" y1="621.2969" y2="621.2969"/><text fill="#000000" font-family="sans-serif" font-size="14" lengthAdjust="spacing" textLength="61.5781" x="56.04" y="612.9951">Archived</text></g><ellipse cx="86.83" cy="717" fill="none" rx="11" ry="11" style="stroke:#222222;stroke-width:1;"/><ellipse cx="86.83" cy="717" fill="#222222" rx="6" ry="6" style="stroke:#222222;stroke-width:1;"/><!--link *start* to Draft--><g id="link_*start*_Draft"><path d="M110.83,26.36 C110.83,40.29 110.83,60.95 110.83,80.65 " fill="none" id="*start*-to-Draft" style="stroke:#181818;stroke-width:1;"/><polygon fill="#181818" points="110.83,86.65,114.83,77.65,110.83,81.65,106.83,77.65,110.83,86.65" style="stroke:#181818;stroke-width:1;"/></g><!--link Draft to Review--><g id="link_Draft_Review"><path d="M82.65,121.27 C61.21,129.21 33.19,143.53 19.83,167 C6,191.28 30.7751,209.1479 57.7351,221.7579 " fill="none" id="Draft-to-Review" style="stroke:#181818;stroke-width:1;"/><polygon fill="#181818" points="63.17,224.3,56.7124,216.8637,58.6409,222.1816,53.323,224.1102,63.17,224.3" style="stroke:#181818;stroke-width:1;"/><text fill="#000000" font-family="sans-serif" font-size="13" lengthAdjust="spacing" textLength="46.1157" x="20.83" y="180.0669">Submit</text></g><!--link Review to Draft--><g id="link_Review_Draft"><path d="M101.16,213.66 C103.28,191.66 105.7977,165.3926 107.9077,143.3726 " fill="none" id="Review-to-Draft" style="stroke:#181818;stroke-width:1;"/><polygon fill="#181818" points="108.48,137.4,103.6398,145.9774,108.0031,142.3772,111.6033,146.7405,108.48,137.4" style="stroke:#181818;stroke-width:1;"/><text fill="#000000" font-family="sans-serif" font-size="13" lengthAdjust="spacing" textLength="112.1377" x="106.55" y="180.0669">Request changes</text></g><!--link Review to Approved--><g id="link_Review_Approved"><path d="M90.53,264.44 C87.82,273.6 85.17,284.17 83.83,294 C81.73,309.4 81.8764,320.8647 83.1264,334.6047 " fill="none" id="Review-to-Approved" style="stroke:#181818;stroke-width:1;"/><polygon fill="#181818" points="83.67,340.58,86.8381,331.2546,83.217,335.6006,78.871,331.9794,83.67,340.58" style="stroke:#181818;stroke-width:1;"/><text fill="#000000" font-family="sans-serif" font-size="13" lengthAdjust="spacing" textLength="54.3867" x="84.83" y="307.0669">Approve</text></g><!--link Review to Rejected--><g id="link_Review_Rejected"><path d="M123.81,264.4 C146.36,286.42 175.0762,314.4691 197.6162,336.4691 " fill="none" id="Review-to-Rejected" style="stroke:#181818;stroke-width:1;"/><polygon fill="#181818" points="201.91,340.66,198.2633,331.5111,198.3319,337.1676,192.6754,337.2362,201.91,340.66" style="stroke:#181818;stroke-width:1;"/><text fill="#000000" font-family="sans-serif" font-size="13" lengthAdjust="spacing" textLength="40.8853" x="171.49" y="307.0669">Reject</text></g><!--link Approved to Published--><g id="link_Approved_Published"><path d="M86.83,391.4 C86.83,413.42 86.83,439.66 86.83,461.66 " fill="none" id="Approved-to-Published" style="stroke:#181818;stroke-width:1;"/><polygon fill="#181818" points="86.83,467.66,90.83,458.66,86.83,462.66,82.83,458.66,86.83,467.66" style="stroke:#181818;stroke-width:1;"/><text fill="#000000" font-family="sans-serif" font-size="13" lengthAdjust="spacing" textLength="46.5664" x="87.83" y="434.0669">Publish</text></g><!--link Published to Archived--><g id="link_Published_Archived"><path d="M86.83,518.4 C86.83,540.42 86.83,566.66 86.83,588.66 " fill="none" id="Published-to-Archived" style="stroke:#181818;stroke-width:1;"/><polygon fill="#181818" points="86.83,594.66,90.83,585.66,86.83,589.66,82.83,585.66,86.83,594.66" style="stroke:#181818;stroke-width:1;"/><text fill="#000000" font-family="sans-serif" font-size="13" lengthAdjust="spacing" textLength="48.9277" x="87.83" y="561.0669">Archive</text></g><!--link Rejected to Draft--><g id="link_Rejected_Draft"><path d="M234.36,340.77 C245.18,300.99 260.24,220.88 225.83,167 C206.77,137.17 172.27,124.8085 144.8,118.7685 " fill="none" id="Rejected-to-Draft" style="stroke:#181818;stroke-width:1;"/><polygon fill="#181818" points="138.94,117.48,146.871,123.3194,143.8233,118.5537,148.589,115.506,138.94,117.48" style="stroke:#181818;stroke-width:1;"/><text fill="#000000" font-family="sans-serif" font-size="13" lengthAdjust="spacing" textLength="43.1069" x="248.14" y="243.5669">Revise</text></g><!--link Archived to *end*--><g id="link_Archived_*end*"><path d="M86.83,645.46 C86.83,665.04 86.83,685.49 86.83,699.8 " fill="none" id="Archived-to-*end*" style="stroke:#181818;stroke-width:1;"/><polygon fill="#181818" points="86.83,705.8,90.83,696.8,86.83,700.8,82.83,696.8,86.83,705.8" style="stroke:#181818;stroke-width:1;"/></g><!--SRC=[YzQALT3LjLDmAKfCA-7Y0bDWWQ3KiipKSWKhXU3IfDpC4Yue7wuMA1EKMbYQMboYa9oHc9UUMeoinB6We2Y_B3K5g0hAH9ODIirAJIu1oqAON73r8Ec0qgISpE8Ci3oKpOKG0njVb9oH2JKUmkI2cudgmhBCubGkk7AGNBHMB000]--></g></svg>