<svg xmlns="http://www.w3.org/2000/svg" xmlns:xlink="http://www.w3.org/1999/xlink" contentStyleType="text/css" height="267px" preserveAspectRatio="none" style="width:302px;height:267px;background:#FFFFFF;" version="1.1" viewBox="0 0 302 267" width="302px" zoomAndPan="magnify"><defs/><g><!--class Animal--><g id="elem_Animal"><rect codeLine="1" fill="#F1F1F1" height="113.1875" id="Animal" rx="2.5" ry="2.5" style="stroke:#181818;stroke-width:0.5;" width="158.7402" x="67.48" y="7"/><ellipse cx="118.377" cy="23" fill="#ADD1B2" rx="11" ry="11" style="stroke:#181818;stroke-width:1;"/><path d="M121.3457,28.6406 Q120.7676,28.9375 120.127,29.0781 Q119.4863,29.2344 118.7832,29.2344 Q116.2832,29.2344 114.9551,27.5938 Q113.6426,25.9375 113.6426,22.8125 Q113.6426,19.6875 114.9551,18.0313 Q116.2832,16.375 118.7832,16.375 Q119.4863,16.375 120.127,16.5313 Q120.7832,16.6875 121.3457,16.9844 L121.3457,19.7031 Q120.7207,19.125 120.127,18.8594 Q119.5332,18.5781 118.9082,18.5781 Q117.5645,18.5781 116.877,19.6563 Q116.1895,20.7188 116.1895,22.8125 Q116.1895,24.9063 116.877,25.9844 Q117.5645,27.0469 118.9082,27.0469 Q119.5332,27.0469 120.127,26.7813 Q120.7207,26.5 121.3457,25.9219 L121.3457,28.6406 Z " fill="#000000"/><text fill="#000000" font-family="sans-serif" font-size="14" lengthAdjust="spacing" textLength="48.4463" x="138.877" y="27.8467">Animal</text><line style="stroke:#181818;stroke-width:0.5;" x1="68.48" x2="225.2202" y1="39" y2="39"/><ellipse cx="78.48" cy="52.6484" fill="none" rx="3" ry="3" style="stroke:#038048;stroke-width:1;"/><text fill="#000000" font-family="sans-serif" font-size="14" lengthAdjust="spacing" textLength="90.6514" x="87.48" y="55.9951">name: String</text><ellipse cx="78.48" cy="68.9453" fill="none" rx="3" ry="3" style="stroke:#038048;stroke-width:1;"/><text fill="#000000" font-family="sans-serif" font-size="14" lengthAdjust="spacing" textLength="53.498" x="87.48" y="72.292">age: int</text><line style="stroke:#181818;stroke-width:0.5;" x1="68.48" x2="225.2202" y1="79.5938" y2="79.5938"/><ellipse cx="78.48" cy="93.2422" fill="#84BE84" rx="3" ry="3" style="stroke:#038048;stroke-width:1;"/><text fill="#000000" font-family="sans-serif" font-size="14" lengthAdjust="spacing" textLength="132.7402" x="87.48" y="96.5889">makeSound(): void</text><ellipse cx="78.48" cy="109.5391" fill="#84BE84" rx="3" ry="3" style="stroke:#038048;stroke-width:1;"/><text fill="#000000" font-family="sans-serif" font-size="14" lengthAdjust="spacing" textLength="88.8193" x="87.48" y="112.8857">move(): void</text></g><!--class Dog--><g id="elem_Dog"><rect codeLine="8" fill="#F1F1F1" height="80.5938" id="Dog" rx="2.5" ry="2.5" style="stroke:#181818;stroke-width:0.5;" width="117.7041" x="7" y="180.19"/><ellipse cx="47.8623" cy="196.19" fill="#ADD1B2" rx="11" ry="11" style="stroke:#181818;stroke-width:1;"/><path d="M50.831,201.8306 Q50.2529,202.1275 49.6123,202.2681 Q48.9716,202.4244 48.2685,202.4244 Q45.7685,202.4244 44.4404,200.7838 Q43.1279,199.1275 43.1279,196.0025 Q43.1279,192.8775 44.4404,191.2213 Q45.7685,189.565 48.2685,189.565 Q48.9716,189.565 49.6123,189.7213 Q50.2685,189.8775 50.831,190.1744 L50.831,192.8931 Q50.206,192.315 49.6123,192.0494 Q49.0185,191.7681 48.3935,191.7681 Q47.0498,191.7681 46.3623,192.8463 Q45.6748,193.9088 45.6748,196.0025 Q45.6748,198.0963 46.3623,199.1744 Q47.0498,200.2369 48.3935,200.2369 Q49.0185,200.2369 49.6123,199.9713 Q50.206,199.69 50.831,199.1119 L50.831,201.8306 Z " fill="#000000"/><text fill="#000000" font-family="sans-serif" font-size="14" lengthAdjust="spacing" textLength="28.2324" x="67.6094" y="201.0367">Dog</text><line style="stroke:#181818;stroke-width:0.5;" x1="8" x2="123.7041" y1="212.19" y2="212.19"/><ellipse cx="18" cy="225.8384" fill="none" rx="3" ry="3" style="stroke:#038048;stroke-width:1;"/><text fill="#000000" font-family="sans-serif" font-size="14" lengthAdjust="spacing" textLength="91.7041" x="27" y="229.1851">breed: String</text><line style="stroke:#181818;stroke-width:0.5;" x1="8" x2="123.7041" y1="236.4869" y2="236.4869"/><ellipse cx="18" cy="250.1353" fill="#84BE84" rx="3" ry="3" style="stroke:#038048;stroke-width:1;"/><text fill="#000000" font-family="sans-serif" font-size="14" lengthAdjust="spacing" textLength="85.3193" x="27" y="253.482">fetch(): void</text></g><!--class Cat--><g id="elem_Cat"><rect codeLine="13" fill="#F1F1F1" height="80.5938" id="Cat" rx="2.5" ry="2.5" style="stroke:#181818;stroke-width:0.5;" width="135.6758" x="160.01" y="180.19"/><ellipse cx="211.676" cy="196.19" fill="#ADD1B2" rx="11" ry="11" style="stroke:#181818;stroke-width:1;"/><path d="M214.6448,201.8306 Q214.0666,202.1275 213.426,202.2681 Q212.7854,202.4244 212.0823,202.4244 Q209.5823,202.4244 208.2541,200.7838 Q206.9416,199.1275 206.9416,196.0025 Q206.9416,192.8775 208.2541,191.2213 Q209.5823,189.565 212.0823,189.565 Q212.7854,189.565 213.426,189.7213 Q214.0823,189.8775 214.6448,190.1744 L214.6448,192.8931 Q214.0198,192.315 213.426,192.0494 Q212.8323,191.7681 212.2073,191.7681 Q210.8635,191.7681 210.176,192.8463 Q209.4885,193.9088 209.4885,196.0025 Q209.4885,198.0963 210.176,199.1744 Q210.8635,200.2369 212.2073,200.2369 Q212.8323,200.2369 213.426,199.9713 Q214.0198,199.69 214.6448,199.1119 L214.6448,201.8306 Z " fill="#000000"/><text fill="#000000" font-family="sans-serif" font-size="14" lengthAdjust="spacing" textLength="23.8438" x="232.176" y="201.0367">Cat</text><line style="stroke:#181818;stroke-width:0.5;" x1="161.01" x2="294.6858" y1="212.19" y2="212.19"/><ellipse cx="171.01" cy="225.8384" fill="none" rx="3" ry="3" style="stroke:#038048;stroke-width:1;"/><text fill="#000000" font-family="sans-serif" font-size="14" lengthAdjust="spacing" textLength="109.6758" x="180.01" y="229.1851">indoor: boolean</text><line style="stroke:#181818;stroke-width:0.5;" x1="161.01" x2="294.6858" y1="236.4869" y2="236.4869"/><ellipse cx="171.01" cy="250.1353" fill="#84BE84" rx="3" ry="3" style="stroke:#038048;stroke-width:1;"/><text fill="#000000" font-family="sans-serif" font-size="14" lengthAdjust="spacing" textLength="78.9893" x="180.01" y="253.482">purr(): void</text></g><!--reverse link Animal to Dog--><g id="link_Animal_Dog"><path codeLine="18" d="M109.2708,136.4618 C98.9408,156.2218 95.88,162.06 86.42,180.15 " fill="none" id="Animal-backto-Dog" style="stroke:#181818;stroke-width:1;"/><polygon fill="none" points="117.61,120.51,103.9536,133.682,114.5881,139.2415,117.61,120.51" style="stroke:#181818;stroke-width:1;"/></g><!--reverse link Animal to Cat--><g id="link_Animal_Cat"><path codeLine="19" d="M184.4355,136.4584 C194.7755,156.2184 197.82,162.06 207.28,180.15 " fill="none" id="Animal-backto-Cat" style="stroke:#181818;stroke-width:1;"/><polygon fill="none" points="176.09,120.51,179.1193,139.2403,189.7516,133.6766,176.09,120.51" style="stroke:#181818;stroke-width:1;"/></g><!--SRC=[POv13i8m30JlUOMF8DGFH5mG_A0lS1CtH2GsIjDUWByta1PHuTkEjBCs0OS1JkmZ1dWeA7TWZAIXpScpgmHT0PvpJH5lrCh8ThVNC8ct2vQ9lkIbbFceB-9MRvU8x5RSKpRN_z8PyrhoR4MIXaua47A5zp6btzRo__7PDE_1JIwk6G00]--></g></svg>