<svg xmlns="http://www.w3.org/2000/svg" xmlns:xlink="http://www.w3.org/1999/xlink" contentStyleType="text/css" height="425px" preserveAspectRatio="none" style="width:735px;height:425px;background:#FFFFFF;" version="1.1" viewBox="0 0 735 425" width="735px" zoomAndPan="magnify"><defs/><g><!--cluster Domain--><g id="cluster_Domain"><path d="M8.5,162.89 L69.54,162.89 A3.75,3.75 0 0 1 72.04,165.39 L79.04,185.1869 L316.5,185.1869 A2.5,2.5 0 0 1 319,187.6869 L319,416.28 A2.5,2.5 0 0 1 316.5,418.78 L8.5,418.78 A2.5,2.5 0 0 1 6,416.28 L6,165.39 A2.5,2.5 0 0 1 8.5,162.89 " fill="none" style="stroke:#000000;stroke-width:1.5;"/><line style="stroke:#000000;stroke-width:1.5;" x1="6" x2="79.04" y1="185.1869" y2="185.1869"/><text fill="#000000" font-family="sans-serif" font-size="14" font-weight="bold" lengthAdjust="spacing" textLength="60.04" x="10" y="177.8851">Domain</text></g><!--cluster Repository--><g id="cluster_Repository"><path d="M345.5,6 L431.8877,6 A3.75,3.75 0 0 1 434.3877,8.5 L441.3877,28.2969 L725.5,28.2969 A2.5,2.5 0 0 1 728,30.7969 L728,267.54 A2.5,2.5 0 0 1 725.5,270.04 L345.5,270.04 A2.5,2.5 0 0 1 343,267.54 L343,8.5 A2.5,2.5 0 0 1 345.5,6 " fill="none" style="stroke:#000000;stroke-width:1.5;"/><line style="stroke:#000000;stroke-width:1.5;" x1="343" x2="441.3877" y1="28.2969" y2="28.2969"/><text fill="#000000" font-family="sans-serif" font-size="14" font-weight="bold" lengthAdjust="spacing" textLength="85.3877" x="347" y="20.9951">Repository</text></g><!--class Entity--><g id="elem_Entity"><rect codeLine="2" fill="#F1F1F1" height="64.2969" id="Entity" rx="2.5" ry="2.5" style="stroke:#181818;stroke-width:0.5;" width="72.8721" x="122.56" y="197.89"/><ellipse cx="137.56" cy="213.89" fill="#ADD1B2" rx="11" ry="11" style="stroke:#181818;stroke-width:1;"/><path d="M140.5288,219.5306 Q139.9506,219.8275 139.31,219.9681 Q138.6694,220.1244 137.9663,220.1244 Q135.4663,220.1244 134.1381,218.4838 Q132.8256,216.8275 132.8256,213.7025 Q132.8256,210.5775 134.1381,208.9213 Q135.4663,207.265 137.9663,207.265 Q138.6694,207.265 139.31,207.4213 Q139.9663,207.5775 140.5288,207.8744 L140.5288,210.5931 Q139.9038,210.015 139.31,209.7494 Q138.7163,209.4681 138.0913,209.4681 Q136.7475,209.4681 136.06,210.5463 Q135.3725,211.6088 135.3725,213.7025 Q135.3725,215.7963 136.06,216.8744 Q136.7475,217.9369 138.0913,217.9369 Q138.7163,217.9369 139.31,217.6713 Q139.9038,217.39 140.5288,216.8119 L140.5288,219.5306 Z " fill="#000000"/><text fill="#000000" font-family="sans-serif" font-size="14" lengthAdjust="spacing" textLength="40.8721" x="151.56" y="218.7367">Entity</text><line style="stroke:#181818;stroke-width:0.5;" x1="123.56" x2="194.4321" y1="229.89" y2="229.89"/><ellipse cx="133.56" cy="243.5384" fill="none" rx="3" ry="3" style="stroke:#038048;stroke-width:1;"/><text fill="#000000" font-family="sans-serif" font-size="14" lengthAdjust="spacing" textLength="40.1953" x="142.56" y="246.8851">id: int</text><line style="stroke:#181818;stroke-width:0.5;" x1="123.56" x2="194.4321" y1="254.1869" y2="254.1869"/></g><!--class User--><g id="elem_User"><rect codeLine="5" fill="#F1F1F1" height="64.2969" id="User" rx="2.5" ry="2.5" style="stroke:#181818;stroke-width:0.5;" width="115.5576" x="22.22" y="330.33"/><ellipse cx="60.4614" cy="346.33" fill="#ADD1B2" rx="11" ry="11" style="stroke:#181818;stroke-width:1;"/><path d="M63.4301,351.9706 Q62.852,352.2675 62.2114,352.4081 Q61.5707,352.5644 60.8676,352.5644 Q58.3676,352.5644 57.0395,350.9238 Q55.727,349.2675 55.727,346.1425 Q55.727,343.0175 57.0395,341.3613 Q58.3676,339.705 60.8676,339.705 Q61.5707,339.705 62.2114,339.8613 Q62.8676,340.0175 63.4301,340.3144 L63.4301,343.0331 Q62.8051,342.455 62.2114,342.1894 Q61.6176,341.9081 60.9926,341.9081 Q59.6489,341.9081 58.9614,342.9863 Q58.2739,344.0488 58.2739,346.1425 Q58.2739,348.2363 58.9614,349.3144 Q59.6489,350.3769 60.9926,350.3769 Q61.6176,350.3769 62.2114,350.1113 Q62.8051,349.83 63.4301,349.2519 L63.4301,351.9706 Z " fill="#000000"/><text fill="#000000" font-family="sans-serif" font-size="14" lengthAdjust="spacing" textLength="31.9102" x="79.6261" y="351.1767">User</text><line style="stroke:#181818;stroke-width:0.5;" x1="23.22" x2="136.7776" y1="362.33" y2="362.33"/><ellipse cx="33.22" cy="375.9784" fill="none" rx="3" ry="3" style="stroke:#038048;stroke-width:1;"/><text fill="#000000" font-family="sans-serif" font-size="14" lengthAdjust="spacing" textLength="89.5576" x="42.22" y="379.3251">email: String</text><line style="stroke:#181818;stroke-width:0.5;" x1="23.22" x2="136.7776" y1="386.6269" y2="386.6269"/></g><!--class Document--><g id="elem_Document"><rect codeLine="8" fill="#F1F1F1" height="80.5938" id="Document" rx="2.5" ry="2.5" style="stroke:#181818;stroke-width:0.5;" width="130.5488" x="172.73" y="322.19"/><ellipse cx="199.4388" cy="338.19" fill="#ADD1B2" rx="11" ry="11" style="stroke:#181818;stroke-width:1;"/><path d="M202.4075,343.8306 Q201.8294,344.1275 201.1888,344.2681 Q200.5482,344.4244 199.845,344.4244 Q197.345,344.4244 196.0169,342.7837 Q194.7044,341.1275 194.7044,338.0025 Q194.7044,334.8775 196.0169,333.2212 Q197.345,331.565 199.845,331.565 Q200.5482,331.565 201.1888,331.7212 Q201.845,331.8775 202.4075,332.1744 L202.4075,334.8931 Q201.7825,334.315 201.1888,334.0494 Q200.595,333.7681 199.97,333.7681 Q198.6263,333.7681 197.9388,334.8462 Q197.2513,335.9087 197.2513,338.0025 Q197.2513,340.0962 197.9388,341.1744 Q198.6263,342.2369 199.97,342.2369 Q200.595,342.2369 201.1888,341.9712 Q201.7825,341.69 202.4075,341.1119 L202.4075,343.8306 Z " fill="#000000"/><text fill="#000000" font-family="sans-serif" font-size="14" lengthAdjust="spacing" textLength="72.5293" x="216.0407" y="343.0367">Document</text><line style="stroke:#181818;stroke-width:0.5;" x1="173.73" x2="302.2788" y1="354.19" y2="354.19"/><ellipse cx="183.73" cy="367.8384" fill="none" rx="3" ry="3" style="stroke:#038048;stroke-width:1;"/><text fill="#000000" font-family="sans-serif" font-size="14" lengthAdjust="spacing" textLength="78.3193" x="192.73" y="371.1851">title: String</text><ellipse cx="183.73" cy="384.1353" fill="none" rx="3" ry="3" style="stroke:#038048;stroke-width:1;"/><text fill="#000000" font-family="sans-serif" font-size="14" lengthAdjust="spacing" textLength="104.5488" x="192.73" y="387.482">content: String</text><line style="stroke:#181818;stroke-width:0.5;" x1="173.73" x2="302.2788" y1="394.7837" y2="394.7837"/></g><!--class Repository--><g id="elem_Repository"><rect codeLine="15" fill="#F1F1F1" height="96.8906" id="Repository" rx="2.5" ry="2.5" style="stroke:#181818;stroke-width:0.5;" width="166.8477" x="448.58" y="41"/><ellipse cx="485.3804" cy="57" fill="#B4A7E5" rx="11" ry="11" style="stroke:#181818;stroke-width:1;"/><path d="M481.3023,52.7656 L481.3023,50.6094 L488.6929,50.6094 L488.6929,52.7656 L486.2241,52.7656 L486.2241,60.8438 L488.6929,60.8438 L488.6929,63 L481.3023,63 L481.3023,60.8438 L483.771,60.8438 L483.771,52.7656 L481.3023,52.7656 Z " fill="#000000"/><text fill="#000000" font-family="sans-serif" font-size="14" font-style="italic" lengthAdjust="spacing" textLength="75.0723" x="504.2249" y="61.8467">Repository</text><rect fill="#FFFFFF" height="15.9688" style="stroke:#181818;stroke-width:1;stroke-dasharray:2.0,2.0;" width="9.3301" x="609.0976" y="38"/><text fill="#000000" font-family="sans-serif" font-size="12" font-style="italic" lengthAdjust="spacing" textLength="7.3301" x="610.0976" y="50.1387">T</text><line style="stroke:#181818;stroke-width:0.5;" x1="449.58" x2="614.4277" y1="73" y2="73"/><line style="stroke:#181818;stroke-width:0.5;" x1="449.58" x2="614.4277" y1="81" y2="81"/><ellipse cx="459.58" cy="94.6484" fill="#84BE84" rx="3" ry="3" style="stroke:#038048;stroke-width:1;"/><text fill="#000000" font-family="sans-serif" font-size="14" lengthAdjust="spacing" textLength="126.3213" x="468.58" y="97.9951">findById(id: int): T</text><ellipse cx="459.58" cy="110.9453" fill="#84BE84" rx="3" ry="3" style="stroke:#038048;stroke-width:1;"/><text fill="#000000" font-family="sans-serif" font-size="14" lengthAdjust="spacing" textLength="140.8477" x="468.58" y="114.292">save(entity: T): void</text><ellipse cx="459.58" cy="127.2422" fill="#84BE84" rx="3" ry="3" style="stroke:#038048;stroke-width:1;"/><text fill="#000000" font-family="sans-serif" font-size="14" lengthAdjust="spacing" textLength="134.0186" x="468.58" y="130.5889">delete(id: int): void</text></g><!--class UserRepository--><g id="elem_UserRepository"><rect codeLine="20" fill="#F1F1F1" height="48" id="UserRepository" rx="2.5" ry="2.5" style="stroke:#181818;stroke-width:0.5;" width="138.9824" x="358.51" y="206.04"/><ellipse cx="373.51" cy="222.04" fill="#ADD1B2" rx="11" ry="11" style="stroke:#181818;stroke-width:1;"/><path d="M376.4788,227.6806 Q375.9006,227.9775 375.26,228.1181 Q374.6194,228.2744 373.9163,228.2744 Q371.4163,228.2744 370.0881,226.6337 Q368.7756,224.9775 368.7756,221.8525 Q368.7756,218.7275 370.0881,217.0712 Q371.4163,215.415 373.9163,215.415 Q374.6194,215.415 375.26,215.5712 Q375.9163,215.7275 376.4788,216.0244 L376.4788,218.7431 Q375.8538,218.165 375.26,217.8994 Q374.6663,217.6181 374.0413,217.6181 Q372.6975,217.6181 372.01,218.6962 Q371.3225,219.7587 371.3225,221.8525 Q371.3225,223.9462 372.01,225.0244 Q372.6975,226.0869 374.0413,226.0869 Q374.6663,226.0869 375.26,225.8212 Q375.8538,225.54 376.4788,224.9619 L376.4788,227.6806 Z " fill="#000000"/><text fill="#000000" font-family="sans-serif" font-size="14" lengthAdjust="spacing" textLength="106.9824" x="387.51" y="226.8867">UserRepository</text><line style="stroke:#181818;stroke-width:0.5;" x1="359.51" x2="496.4924" y1="238.04" y2="238.04"/><line style="stroke:#181818;stroke-width:0.5;" x1="359.51" x2="496.4924" y1="246.04" y2="246.04"/></g><!--class DocumentRepository--><g id="elem_DocumentRepository"><rect codeLine="21" fill="#F1F1F1" height="48" id="DocumentRepository" rx="2.5" ry="2.5" style="stroke:#181818;stroke-width:0.5;" width="179.6016" x="532.2" y="206.04"/><ellipse cx="547.2" cy="222.04" fill="#ADD1B2" rx="11" ry="11" style="stroke:#181818;stroke-width:1;"/><path d="M550.1688,227.6806 Q549.5906,227.9775 548.95,228.1181 Q548.3094,228.2744 547.6063,228.2744 Q545.1063,228.2744 543.7781,226.6337 Q542.4656,224.9775 542.4656,221.8525 Q542.4656,218.7275 543.7781,217.0712 Q545.1063,215.415 547.6063,215.415 Q548.3094,215.415 548.95,215.5712 Q549.6063,215.7275 550.1688,216.0244 L550.1688,218.7431 Q549.5438,218.165 548.95,217.8994 Q548.3563,217.6181 547.7313,217.6181 Q546.3875,217.6181 545.7,218.6962 Q545.0125,219.7587 545.0125,221.8525 Q545.0125,223.9462 545.7,225.0244 Q546.3875,226.0869 547.7313,226.0869 Q548.3563,226.0869 548.95,225.8212 Q549.5438,225.54 550.1688,224.9619 L550.1688,227.6806 Z " fill="#000000"/><text fill="#000000" font-family="sans-serif" font-size="14" lengthAdjust="spacing" textLength="147.6016" x="561.2" y="226.8867">DocumentRepository</text><line style="stroke:#181818;stroke-width:0.5;" x1="533.2" x2="710.8016" y1="238.04" y2="238.04"/><line style="stroke:#181818;stroke-width:0.5;" x1="533.2" x2="710.8016" y1="246.04" y2="246.04"/></g><!--reverse link Entity to User--><g id="link_Entity_User"><path d="M130.5562,278.007 C118.1362,298.517 111.33,309.75 98.95,330.2 " fill="none" id="Entity-backto-User" style="stroke:#181818;stroke-width:1;"/><polygon fill="none" points="139.88,262.61,125.4239,274.8991,135.6886,281.1149,139.88,262.61" style="stroke:#181818;stroke-width:1;"/></g><!--reverse link Entity to Document--><g id="link_Entity_Document"><path d="M187.4444,278.0066 C198.2244,295.8066 202.46,302.81 213.96,321.78 " fill="none" id="Entity-backto-Document" style="stroke:#181818;stroke-width:1;"/><polygon fill="none" points="178.12,262.61,182.3123,281.1147,192.5766,274.8984,178.12,262.61" style="stroke:#181818;stroke-width:1;"/></g><!--reverse link Repository to UserRepository--><g id="link_Repository_UserRepository"><path d="M485.404,152.5355 C468.244,175.3955 459.28,187.35 445.45,205.78 " fill="none" id="Repository-backto-UserRepository" style="stroke:#181818;stroke-width:1;stroke-dasharray:7.0,7.0;"/><polygon fill="none" points="496.21,138.14,480.6055,148.9334,490.2024,156.1375,496.21,138.14" style="stroke:#181818;stroke-width:1;"/></g><!--reverse link Repository to DocumentRepository--><g id="link_Repository_DocumentRepository"><path d="M572.7756,153.2347 C587.6256,176.0947 594.93,187.35 606.89,205.78 " fill="none" id="Repository-backto-DocumentRepository" style="stroke:#181818;stroke-width:1;stroke-dasharray:7.0,7.0;"/><polygon fill="none" points="562.97,138.14,567.744,156.5032,577.8072,149.9662,562.97,138.14" style="stroke:#181818;stroke-width:1;"/></g><!--link UserRepository to User--><g id="link_UserRepository_User"><path codeLine="24" d="M377.86,254.46 C359.56,262.52 338.56,271.23 319,278.04 C247.71,302.86 225.3,294.69 155,322.19 C149.11,324.49 148.5224,324.5827 142.5724,327.3727 " fill="none" id="UserRepository-to-User" style="stroke:#181818;stroke-width:1;stroke-dasharray:7.0,7.0;"/><polygon fill="#181818" points="137.14,329.92,146.9868,329.7207,141.667,327.7972,143.5904,322.4774,137.14,329.92" style="stroke:#181818;stroke-width:1;"/></g><!--link DocumentRepository to Document--><g id="link_DocumentRepository_Document"><path codeLine="25" d="M572.16,254.43 C554.32,262.4 533.94,271.05 515,278.04 C443.84,304.27 366.0459,327.0014 309.4459,342.5414 " fill="none" id="DocumentRepository-to-Document" style="stroke:#181818;stroke-width:1;stroke-dasharray:7.0,7.0;"/><polygon fill="#181818" points="303.66,344.13,313.3979,345.6044,308.4816,342.8062,311.2798,337.8899,303.66,344.13" style="stroke:#181818;stroke-width:1;"/></g><!--SRC=[XL113e8m4BppYeqdZ8aF88Q3qODNnGSqxK8sbfRGbKWCVxSG44IYU-jCPsPd2o5l8aDO7MmkoApW6O0VgOLpS3HCNFTGEnjI4P3X3cWcFwyEIy07er5BClJUEe8BbsIoB_71odkEXdyO-BV63uCEbjPu1S-Sco0eXbfdBAmZjcKzLFFhOvaAYJ1okoIUfgLarBu-gR2lkuuW6LadAWonMz7ZdgiigP5Mg95n8dtJyuED-K1veR6zWPjijN2YlnBVVMQztSPTMh3WqN83_080]--></g></svg>