<svg xmlns="http://www.w3.org/2000/svg" xmlns:xlink="http://www.w3.org/1999/xlink" contentStyleType="text/css" height="632px" preserveAspectRatio="none" style="width:150px;height:632px;background:#FFFFFF;" version="1.1" viewBox="0 0 150 632" width="150px" zoomAndPan="magnify"><defs/><g><!--class User--><g id="elem_User"><rect codeLine="1" fill="#F1F1F1" height="113.1875" id="User" rx="2.5" ry="2.5" style="stroke:#181818;stroke-width:0.5;" width="130.0156" x="7" y="7"/><ellipse cx="51.8027" cy="23" fill="#ADD1B2" rx="11" ry="11" style="stroke:#181818;stroke-width:1;"/><path d="M54.7715,28.6406 Q54.1934,28.9375 53.5527,29.0781 Q52.9121,29.2344 52.209,29.2344 Q49.709,29.2344 48.3809,27.5938 Q47.0684,25.9375 47.0684,22.8125 Q47.0684,19.6875 48.3809,18.0313 Q49.709,16.375 52.209,16.375 Q52.9121,16.375 53.5527,16.5313 Q54.209,16.6875 54.7715,16.9844 L54.7715,19.7031 Q54.1465,19.125 53.5527,18.8594 Q52.959,18.5781 52.334,18.5781 Q50.9902,18.5781 50.3027,19.6563 Q49.6152,20.7188 49.6152,22.8125 Q49.6152,24.9063 50.3027,25.9844 Q50.9902,27.0469 52.334,27.0469 Q52.959,27.0469 53.5527,26.7813 Q54.1465,26.5 54.7715,25.9219 L54.7715,28.6406 Z " fill="#000000"/><text fill="#000000" font-family="sans-serif" font-size="14" lengthAdjust="spacing" textLength="31.9102" x="72.3027" y="27.8467">User</text><line style="stroke:#181818;stroke-width:0.5;" x1="8" x2="136.0156" y1="39" y2="39"/><ellipse cx="18" cy="52.6484" fill="none" rx="3" ry="3" style="stroke:#038048;stroke-width:1;"/><text fill="#000000" font-family="sans-serif" font-size="14" lengthAdjust="spacing" textLength="40.1953" x="27" y="55.9951">id: int</text><ellipse cx="18" cy="68.9453" fill="none" rx="3" ry="3" style="stroke:#038048;stroke-width:1;"/><text fill="#000000" font-family="sans-serif" font-size="14" lengthAdjust="spacing" textLength="89.5576" x="27" y="72.292">email: String</text><line style="stroke:#181818;stroke-width:0.5;" x1="8" x2="136.0156" y1="79.5938" y2="79.5938"/><ellipse cx="18" cy="93.2422" fill="#84BE84" rx="3" ry="3" style="stroke:#038048;stroke-width:1;"/><text fill="#000000" font-family="sans-serif" font-size="14" lengthAdjust="spacing" textLength="104.0156" x="27" y="96.5889">register(): void</text><ellipse cx="18" cy="109.5391" fill="#84BE84" rx="3" ry="3" style="stroke:#038048;stroke-width:1;"/><text fill="#000000" font-family="sans-serif" font-size="14" lengthAdjust="spacing" textLength="83.8223" x="27" y="112.8857">login(): void</text></g><!--class Order--><g id="elem_Order"><rect codeLine="8" fill="#F1F1F1" height="113.1875" id="Order" rx="2.5" ry="2.5" style="stroke:#181818;stroke-width:0.5;" width="124.2666" x="9.87" y="197.18"/><ellipse cx="48.3759" cy="213.18" fill="#ADD1B2" rx="11" ry="11" style="stroke:#181818;stroke-width:1;"/><path d="M51.3447,218.8206 Q50.7665,219.1175 50.1259,219.2581 Q49.4853,219.4144 48.7822,219.4144 Q46.2822,219.4144 44.954,217.7737 Q43.6415,216.1175 43.6415,212.9925 Q43.6415,209.8675 44.954,208.2112 Q46.2822,206.555 48.7822,206.555 Q49.4853,206.555 50.1259,206.7112 Q50.7822,206.8675 51.3447,207.1644 L51.3447,209.8831 Q50.7197,209.305 50.1259,209.0394 Q49.5322,208.7581 48.9072,208.7581 Q47.5634,208.7581 46.8759,209.8362 Q46.1884,210.8987 46.1884,212.9925 Q46.1884,215.0862 46.8759,216.1644 Q47.5634,217.2269 48.9072,217.2269 Q49.5322,217.2269 50.1259,216.9612 Q50.7197,216.68 51.3447,216.1019 L51.3447,218.8206 Z " fill="#000000"/><text fill="#000000" font-family="sans-serif" font-size="14" lengthAdjust="spacing" textLength="40.0313" x="67.5994" y="218.0267">Order</text><line style="stroke:#181818;stroke-width:0.5;" x1="10.87" x2="133.1366" y1="229.18" y2="229.18"/><ellipse cx="20.87" cy="242.8284" fill="none" rx="3" ry="3" style="stroke:#038048;stroke-width:1;"/><text fill="#000000" font-family="sans-serif" font-size="14" lengthAdjust="spacing" textLength="40.1953" x="29.87" y="246.1751">id: int</text><ellipse cx="20.87" cy="259.1253" fill="none" rx="3" ry="3" style="stroke:#038048;stroke-width:1;"/><text fill="#000000" font-family="sans-serif" font-size="14" lengthAdjust="spacing" textLength="98.2666" x="29.87" y="262.472">total: Decimal</text><line style="stroke:#181818;stroke-width:0.5;" x1="10.87" x2="133.1366" y1="269.7737" y2="269.7737"/><ellipse cx="20.87" cy="283.4222" fill="#84BE84" rx="3" ry="3" style="stroke:#038048;stroke-width:1;"/><text fill="#000000" font-family="sans-serif" font-size="14" lengthAdjust="spacing" textLength="87.3838" x="29.87" y="286.7689">place(): void</text><ellipse cx="20.87" cy="299.7191" fill="#84BE84" rx="3" ry="3" style="stroke:#038048;stroke-width:1;"/><text fill="#000000" font-family="sans-serif" font-size="14" lengthAdjust="spacing" textLength="95.0674" x="29.87" y="303.0657">cancel(): void</text></g><!--class Product--><g id="elem_Product"><rect codeLine="15" fill="#F1F1F1" height="96.8906" id="Product" rx="2.5" ry="2.5" style="stroke:#181818;stroke-width:0.5;" width="127.0967" x="8.46" y="528.67"/><ellipse cx="42.084" cy="544.67" fill="#ADD1B2" rx="11" ry="11" style="stroke:#181818;stroke-width:1;"/><path d="M45.0528,550.3106 Q44.4746,550.6075 43.834,550.7481 Q43.1934,550.9044 42.4903,550.9044 Q39.9903,550.9044 38.6621,549.2638 Q37.3496,547.6075 37.3496,544.4825 Q37.3496,541.3575 38.6621,539.7013 Q39.9903,538.045 42.4903,538.045 Q43.1934,538.045 43.834,538.2013 Q44.4903,538.3575 45.0528,538.6544 L45.0528,541.3731 Q44.4278,540.795 43.834,540.5294 Q43.2403,540.2481 42.6153,540.2481 Q41.2715,540.2481 40.584,541.3263 Q39.8965,542.3888 39.8965,544.4825 Q39.8965,546.5763 40.584,547.6544 Q41.2715,548.7169 42.6153,548.7169 Q43.2403,548.7169 43.834,548.4513 Q44.4278,548.17 45.0528,547.5919 L45.0528,550.3106 Z " fill="#000000"/><text fill="#000000" font-family="sans-serif" font-size="14" lengthAdjust="spacing" textLength="53.71" x="60.2227" y="549.5167">Product</text><line style="stroke:#181818;stroke-width:0.5;" x1="9.46" x2="134.5567" y1="560.67" y2="560.67"/><ellipse cx="19.46" cy="574.3184" fill="none" rx="3" ry="3" style="stroke:#038048;stroke-width:1;"/><text fill="#000000" font-family="sans-serif" font-size="14" lengthAdjust="spacing" textLength="40.1953" x="28.46" y="577.6651">id: int</text><ellipse cx="19.46" cy="590.6153" fill="none" rx="3" ry="3" style="stroke:#038048;stroke-width:1;"/><text fill="#000000" font-family="sans-serif" font-size="14" lengthAdjust="spacing" textLength="90.6514" x="28.46" y="593.962">name: String</text><ellipse cx="19.46" cy="606.9122" fill="none" rx="3" ry="3" style="stroke:#038048;stroke-width:1;"/><text fill="#000000" font-family="sans-serif" font-size="14" lengthAdjust="spacing" textLength="101.0967" x="28.46" y="610.2589">price: Decimal</text><line style="stroke:#181818;stroke-width:0.5;" x1="9.46" x2="134.5567" y1="617.5606" y2="617.5606"/></g><!--class OrderItem--><g id="elem_OrderItem"><rect codeLine="21" fill="#F1F1F1" height="64.2969" id="OrderItem" rx="2.5" ry="2.5" style="stroke:#181818;stroke-width:0.5;" width="111.7842" x="16.12" y="387.37"/><ellipse cx="34.6677" cy="403.37" fill="#ADD1B2" rx="11" ry="11" style="stroke:#181818;stroke-width:1;"/><path d="M37.6365,409.0106 Q37.0583,409.3075 36.4177,409.4481 Q35.7771,409.6044 35.074,409.6044 Q32.574,409.6044 31.2458,407.9637 Q29.9333,406.3075 29.9333,403.1825 Q29.9333,400.0575 31.2458,398.4012 Q32.574,396.745 35.074,396.745 Q35.7771,396.745 36.4177,396.9012 Q37.074,397.0575 37.6365,397.3544 L37.6365,400.0731 Q37.0115,399.495 36.4177,399.2294 Q35.824,398.9481 35.199,398.9481 Q33.8552,398.9481 33.1677,400.0262 Q32.4802,401.0887 32.4802,403.1825 Q32.4802,405.2762 33.1677,406.3544 Q33.8552,407.4169 35.199,407.4169 Q35.824,407.4169 36.4177,407.1512 Q37.0115,406.87 37.6365,406.2919 L37.6365,409.0106 Z " fill="#000000"/><text fill="#000000" font-family="sans-serif" font-size="14" lengthAdjust="spacing" textLength="71.9004" x="49.4561" y="408.2167">OrderItem</text><line style="stroke:#181818;stroke-width:0.5;" x1="17.12" x2="126.9042" y1="419.37" y2="419.37"/><ellipse cx="27.12" cy="433.0184" fill="none" rx="3" ry="3" style="stroke:#038048;stroke-width:1;"/><text fill="#000000" font-family="sans-serif" font-size="14" lengthAdjust="spacing" textLength="85.7842" x="36.12" y="436.3651">quantity: int</text><line style="stroke:#181818;stroke-width:0.5;" x1="17.12" x2="126.9042" y1="443.6669" y2="443.6669"/></g><!--link User to Order--><g id="link_User_Order"><path codeLine="25" d="M72.01,120.54 C72.01,144.6 72.01,166.65 72.01,190.72 " fill="none" id="User-to-Order" style="stroke:#181818;stroke-width:1;"/><polygon fill="#181818" points="72.01,196.72,76.01,187.72,72.01,191.72,68.01,187.72,72.01,196.72" style="stroke:#181818;stroke-width:1;"/><text fill="#000000" font-family="sans-serif" font-size="13" lengthAdjust="spacing" textLength="41.7485" x="73.01" y="163.2469">places</text><text fill="#000000" font-family="sans-serif" font-size="13" lengthAdjust="spacing" textLength="8.271" x="63.5634" y="140.0662">1</text><text fill="#000000" font-family="sans-serif" font-size="13" lengthAdjust="spacing" textLength="6.5" x="65.6757" y="185.9275">*</text></g><!--reverse link Order to OrderItem--><g id="link_Order_OrderItem"><path codeLine="26" d="M72.01,322.67 C72.01,348.24 72.01,365.58 72.01,387.2 " fill="none" id="Order-backto-OrderItem" style="stroke:#181818;stroke-width:1;"/><polygon fill="#181818" points="72.01,310.67,68.01,316.67,72.01,322.67,76.01,316.67,72.01,310.67" style="stroke:#181818;stroke-width:1;"/><text fill="#000000" font-family="sans-serif" font-size="13" lengthAdjust="spacing" textLength="55.0278" x="73.01" y="353.4369">contains</text><text fill="#000000" font-family="sans-serif" font-size="13" lengthAdjust="spacing" textLength="8.271" x="63.5398" y="330.5933">1</text><text fill="#000000" font-family="sans-serif" font-size="13" lengthAdjust="spacing" textLength="6.5" x="65.4424" y="376.068">*</text></g><!--link OrderItem to Product--><g id="link_OrderItem_Product"><path codeLine="27" d="M72.01,452.01 C72.01,473.94 72.01,497.6 72.01,522.42 " fill="none" id="OrderItem-to-Product" style="stroke:#181818;stroke-width:1;"/><polygon fill="#181818" points="72.01,528.42,76.01,519.42,72.01,523.42,68.01,519.42,72.01,528.42" style="stroke:#181818;stroke-width:1;"/><text fill="#000000" font-family="sans-serif" font-size="13" lengthAdjust="spacing" textLength="69.418" x="73.01" y="494.7369">references</text><text fill="#000000" font-family="sans-serif" font-size="13" lengthAdjust="spacing" textLength="6.5" x="65.4854" y="471.7129">*</text><text fill="#000000" font-family="sans-serif" font-size="13" lengthAdjust="spacing" textLength="8.271" x="63.4668" y="517.5938">1</text></g><!--SRC=[TP2nZW8n34Jx_GfhgplG5jUck8g62YJ41rXUtyfIDW77YuGG_tuXWKEh0tSUJPvdGXvJWdrYXKi3UPRIEv1WTU4HnJlOcKeOggGyI3BMZqy7foXzLNqS9Fn9rwQX0jve_uPiqJ2JLqmoeg_QmIFnd4iOYFr_y5PZFv6zH0SSUPxve4ByF3QFjpOU7vpZXC74pfMMVULdsgyMkkuRsaLxR-IWP4rDNM-6HTSz3ONfW68mb72t5V5cAQpyv572WV8FA-UgwHS0]--></g></svg>