<svg xmlns="http://www.w3.org/2000/svg" xmlns:xlink="http://www.w3.org/1999/xlink" contentStyleType="text/css" height="601px" preserveAspectRatio="none" style="width:415px;height:601px;background:#FFFFFF;" version="1.1" viewBox="0 0 415 601" width="415px" zoomAndPan="magnify"><defs/><g><!--cluster Frontend--><g id="cluster_Frontend"><path d="M103.5,6 L176.7285,6 A3.75,3.75 0 0 1 179.2285,8.5 L186.2285,28.2969 L242.5,28.2969 A2.5,2.5 0 0 1 245,30.7969 L245,208.09 A2.5,2.5 0 0 1 242.5,210.59 L103.5,210.59 A2.5,2.5 0 0 1 101,208.09 L101,8.5 A2.5,2.5 0 0 1 103.5,6 " fill="none" style="stroke:#000000;stroke-width:1.5;"/><line style="stroke:#000000;stroke-width:1.5;" x1="101" x2="186.2285" y1="28.2969" y2="28.2969"/><text fill="#000000" font-family="sans-serif" font-size="14" font-weight="bold" lengthAdjust="spacing" textLength="72.2285" x="105" y="20.9951">Frontend</text></g><!--cluster Backend--><g id="cluster_Backend"><path d="M8.5,259.59 L76.7109,259.59 A3.75,3.75 0 0 1 79.2109,262.09 L86.2109,281.8869 L343.5,281.8869 A2.5,2.5 0 0 1 346,284.3869 L346,461.68 A2.5,2.5 0 0 1 343.5,464.18 L8.5,464.18 A2.5,2.5 0 0 1 6,461.68 L6,262.09 A2.5,2.5 0 0 1 8.5,259.59 " fill="none" style="stroke:#000000;stroke-width:1.5;"/><line style="stroke:#000000;stroke-width:1.5;" x1="6" x2="86.2109" y1="281.8869" y2="281.8869"/><text fill="#000000" font-family="sans-serif" font-size="14" font-weight="bold" lengthAdjust="spacing" textLength="67.2109" x="10" y="274.5851">Backend</text></g><!--cluster Data Layer--><g id="cluster_Data Layer"><path d="M96.5,497.18 L183.4756,497.18 A3.75,3.75 0 0 1 185.9756,499.68 L192.9756,519.4769 L405.5,519.4769 A2.5,2.5 0 0 1 408,521.9769 L408,591.98 A2.5,2.5 0 0 1 405.5,594.48 L96.5,594.48 A2.5,2.5 0 0 1 94,591.98 L94,499.68 A2.5,2.5 0 0 1 96.5,497.18 " fill="none" style="stroke:#000000;stroke-width:1.5;"/><line style="stroke:#000000;stroke-width:1.5;" x1="94" x2="192.9756" y1="519.4769" y2="519.4769"/><text fill="#000000" font-family="sans-serif" font-size="14" font-weight="bold" lengthAdjust="spacing" textLength="85.9756" x="98" y="512.1751">Data Layer</text></g><!--entity react--><g id="elem_react"><rect fill="#F1F1F1" height="46.2969" rx="2.5" ry="2.5" style="stroke:#181818;stroke-width:0.5;" width="111.9072" x="117.05" y="41"/><rect fill="#F1F1F1" height="10" style="stroke:#181818;stroke-width:0.5;" width="15" x="208.9572" y="46"/><rect fill="#F1F1F1" height="2" style="stroke:#181818;stroke-width:0.5;" width="4" x="206.9572" y="48"/><rect fill="#F1F1F1" height="2" style="stroke:#181818;stroke-width:0.5;" width="4" x="206.9572" y="52"/><text fill="#000000" font-family="sans-serif" font-size="14" lengthAdjust="spacing" textLength="71.9072" x="132.05" y="73.9951">React App</text></g><!--entity client--><g id="elem_client"><rect fill="#F1F1F1" height="46.2969" rx="2.5" ry="2.5" style="stroke:#181818;stroke-width:0.5;" width="107.1289" x="119.44" y="148.29"/><rect fill="#F1F1F1" height="10" style="stroke:#181818;stroke-width:0.5;" width="15" x="206.5689" y="153.29"/><rect fill="#F1F1F1" height="2" style="stroke:#181818;stroke-width:0.5;" width="4" x="204.5689" y="155.29"/><rect fill="#F1F1F1" height="2" style="stroke:#181818;stroke-width:0.5;" width="4" x="204.5689" y="159.29"/><text fill="#000000" font-family="sans-serif" font-size="14" lengthAdjust="spacing" textLength="67.1289" x="134.44" y="181.2851">API Client</text></g><!--entity api--><g id="elem_api"><rect fill="#F1F1F1" height="46.2969" rx="2.5" ry="2.5" style="stroke:#181818;stroke-width:0.5;" width="102.6104" x="121.69" y="294.59"/><rect fill="#F1F1F1" height="10" style="stroke:#181818;stroke-width:0.5;" width="15" x="204.3004" y="299.59"/><rect fill="#F1F1F1" height="2" style="stroke:#181818;stroke-width:0.5;" width="4" x="202.3004" y="301.59"/><rect fill="#F1F1F1" height="2" style="stroke:#181818;stroke-width:0.5;" width="4" x="202.3004" y="305.59"/><text fill="#000000" font-family="sans-serif" font-size="14" lengthAdjust="spacing" textLength="62.6104" x="136.69" y="327.5851">REST API</text></g><!--entity auth--><g id="elem_auth"><rect fill="#F1F1F1" height="46.2969" rx="2.5" ry="2.5" style="stroke:#181818;stroke-width:0.5;" width="129.0039" x="22.5" y="401.89"/><rect fill="#F1F1F1" height="10" style="stroke:#181818;stroke-width:0.5;" width="15" x="131.5039" y="406.89"/><rect fill="#F1F1F1" height="2" style="stroke:#181818;stroke-width:0.5;" width="4" x="129.5039" y="408.89"/><rect fill="#F1F1F1" height="2" style="stroke:#181818;stroke-width:0.5;" width="4" x="129.5039" y="412.89"/><text fill="#000000" font-family="sans-serif" font-size="14" lengthAdjust="spacing" textLength="89.0039" x="37.5" y="434.8851">Auth Service</text></g><!--entity logic--><g id="elem_logic"><rect fill="#F1F1F1" height="46.2969" rx="2.5" ry="2.5" style="stroke:#181818;stroke-width:0.5;" width="143.0244" x="186.49" y="401.89"/><rect fill="#F1F1F1" height="10" style="stroke:#181818;stroke-width:0.5;" width="15" x="309.5144" y="406.89"/><rect fill="#F1F1F1" height="2" style="stroke:#181818;stroke-width:0.5;" width="4" x="307.5144" y="408.89"/><rect fill="#F1F1F1" height="2" style="stroke:#181818;stroke-width:0.5;" width="4" x="307.5144" y="412.89"/><text fill="#000000" font-family="sans-serif" font-size="14" lengthAdjust="spacing" textLength="103.0244" x="201.49" y="434.8851">Business Logic</text></g><!--entity db--><g id="elem_db"><rect fill="#F1F1F1" height="46.2969" rx="2.5" ry="2.5" style="stroke:#181818;stroke-width:0.5;" width="120.7529" x="109.62" y="532.18"/><rect fill="#F1F1F1" height="10" style="stroke:#181818;stroke-width:0.5;" width="15" x="210.3729" y="537.18"/><rect fill="#F1F1F1" height="2" style="stroke:#181818;stroke-width:0.5;" width="4" x="208.3729" y="539.18"/><rect fill="#F1F1F1" height="2" style="stroke:#181818;stroke-width:0.5;" width="4" x="208.3729" y="543.18"/><text fill="#000000" font-family="sans-serif" font-size="14" lengthAdjust="spacing" textLength="80.7529" x="124.62" y="565.1751">PostgreSQL</text></g><!--entity cache--><g id="elem_cache"><rect fill="#F1F1F1" height="46.2969" rx="2.5" ry="2.5" style="stroke:#181818;stroke-width:0.5;" width="126.3994" x="265.8" y="532.18"/><rect fill="#F1F1F1" height="10" style="stroke:#181818;stroke-width:0.5;" width="15" x="372.1994" y="537.18"/><rect fill="#F1F1F1" height="2" style="stroke:#181818;stroke-width:0.5;" width="4" x="370.1994" y="539.18"/><rect fill="#F1F1F1" height="2" style="stroke:#181818;stroke-width:0.5;" width="4" x="370.1994" y="543.18"/><text fill="#000000" font-family="sans-serif" font-size="14" lengthAdjust="spacing" textLength="86.3994" x="280.8" y="565.1751">Redis Cache</text></g><!--link react to client--><g id="link_react_client"><path d="M173,87.73 C173,105.5 173,124.13 173,141.89 " fill="none" id="react-to-client" style="stroke:#181818;stroke-width:1;"/><polygon fill="#181818" points="173,147.89,177,138.89,173,142.89,169,138.89,173,147.89" style="stroke:#181818;stroke-width:1;"/></g><!--link client to api--><g id="link_client_api"><path d="M173,194.99 C173,222.1 173,261.31 173,288.35 " fill="none" id="client-to-api" style="stroke:#181818;stroke-width:1;"/><polygon fill="#181818" points="173,294.35,177,285.35,173,289.35,169,285.35,173,294.35" style="stroke:#181818;stroke-width:1;"/><text fill="#000000" font-family="sans-serif" font-size="13" lengthAdjust="spacing" textLength="41.7485" x="174" y="239.6569">HTTPS</text></g><!--link api to auth--><g id="link_api_auth"><path d="M154.55,341.33 C140.04,359.09 123.7159,379.0833 109.2159,396.8333 " fill="none" id="api-to-auth" style="stroke:#181818;stroke-width:1;"/><polygon fill="#181818" points="105.42,401.48,114.2116,397.0406,108.5832,397.6078,108.016,391.9794,105.42,401.48" style="stroke:#181818;stroke-width:1;"/></g><!--link api to logic--><g id="link_api_logic"><path d="M191.23,341.33 C205.58,359.09 221.6894,379.0628 236.0294,396.8128 " fill="none" id="api-to-logic" style="stroke:#181818;stroke-width:1;"/><polygon fill="#181818" points="239.8,401.48,237.2556,391.9655,236.6579,397.5907,231.0327,396.9929,239.8,401.48" style="stroke:#181818;stroke-width:1;"/></g><!--link logic to db--><g id="link_logic_db"><path d="M242.47,448.68 C226.38,472.13 204.7939,503.6021 188.7639,526.9721 " fill="none" id="logic-to-db" style="stroke:#181818;stroke-width:1;"/><polygon fill="#181818" points="185.37,531.92,193.7594,526.7607,188.1982,527.7968,187.1622,522.2356,185.37,531.92" style="stroke:#181818;stroke-width:1;"/></g><!--link logic to cache--><g id="link_logic_cache"><path d="M270.53,448.68 C283.51,472.13 300.7536,503.3009 313.6936,526.6709 " fill="none" id="logic-to-cache" style="stroke:#181818;stroke-width:1;"/><polygon fill="#181818" points="316.6,531.92,315.7398,522.1088,314.178,527.5458,308.741,525.984,316.6,531.92" style="stroke:#181818;stroke-width:1;"/></g><!--SRC=[LKz13e8m4Bpt5HlkVC23YQ164muet8o7jMoWaK3J5XDZ_BljLZJqqCxiT6TsDSexjWJ9teo3ew59u2N0dykPK3hOQ7q5j602YyAcF4BUAneSAvAXU0kXPw_CWuNLhgh1j_5_rEhhCxaEAZ8F9IaglX2bRB9g86kX65ibMUm3MgHiqI4K-2Jp2of7wrf3rQdWdkOshz8e2pdABWR9W88NRmLfkfwtY0zN_9omWaDTbvK8c6jXmfd4YVXcxjF-X2C-]--></g></svg>