<svg xmlns="http://www.w3.org/2000/svg" xmlns:xlink="http://www.w3.org/1999/xlink" contentStyleType="text/css" height="490px" preserveAspectRatio="none" style="width:653px;height:490px;background:#FFFFFF;" version="1.1" viewBox="0 0 653 490" width="653px" zoomAndPan="magnify"><defs/><g><!--cluster lb--><g id="cluster_lb"><polygon fill="none" points="319,16,329,6,506,6,506,114.3,496,124.3,319,124.3,319,16" style="stroke:#181818;stroke-width:1;"/><line style="stroke:#181818;stroke-width:1;" x1="496" x2="506" y1="16" y2="6"/><line style="stroke:#181818;stroke-width:1;" x1="319" x2="496" y1="16" y2="16"/><line style="stroke:#181818;stroke-width:1;" x1="496" x2="496" y1="16" y2="124.3"/><text fill="#000000" font-family="sans-serif" font-size="14" font-weight="bold" lengthAdjust="spacing" textLength="111.9111" x="352.5444" y="31.9951">Load Balancer</text></g><!--cluster app1--><g id="cluster_app1"><polygon fill="none" points="16,199.3,26,189.3,306,189.3,306,297.59,296,307.59,16,307.59,16,199.3" style="stroke:#181818;stroke-width:1;"/><line style="stroke:#181818;stroke-width:1;" x1="296" x2="306" y1="199.3" y2="189.3"/><line style="stroke:#181818;stroke-width:1;" x1="16" x2="296" y1="199.3" y2="199.3"/><line style="stroke:#181818;stroke-width:1;" x1="296" x2="296" y1="199.3" y2="307.59"/><text fill="#000000" font-family="sans-serif" font-size="14" font-weight="bold" lengthAdjust="spacing" textLength="102.375" x="105.8125" y="215.2951">App Server 1</text></g><!--cluster app2--><g id="cluster_app2"><polygon fill="none" points="346,199.3,356,189.3,636,189.3,636,297.59,626,307.59,346,307.59,346,199.3" style="stroke:#181818;stroke-width:1;"/><line style="stroke:#181818;stroke-width:1;" x1="626" x2="636" y1="199.3" y2="189.3"/><line style="stroke:#181818;stroke-width:1;" x1="346" x2="626" y1="199.3" y2="199.3"/><line style="stroke:#181818;stroke-width:1;" x1="626" x2="626" y1="199.3" y2="307.59"/><text fill="#000000" font-family="sans-serif" font-size="14" font-weight="bold" lengthAdjust="spacing" textLength="102.375" x="435.8125" y="215.2951">App Server 2</text></g><!--cluster dbsrv--><g id="cluster_dbsrv"><polygon fill="none" points="242,366.59,252,356.59,507,356.59,507,463.89,497,473.89,242,473.89,242,366.59" style="stroke:#181818;stroke-width:1;"/><line style="stroke:#181818;stroke-width:1;" x1="497" x2="507" y1="366.59" y2="356.59"/><line style="stroke:#181818;stroke-width:1;" x1="242" x2="497" y1="366.59" y2="366.59"/><line style="stroke:#181818;stroke-width:1;" x1="497" x2="497" y1="366.59" y2="473.89"/><text fill="#000000" font-family="sans-serif" font-size="14" font-weight="bold" lengthAdjust="spacing" textLength="131.3867" x="304.8066" y="382.5851">Database Server</text></g><!--entity Nginx--><g id="elem_Nginx"><rect fill="#F1F1F1" height="46.2969" rx="2.5" ry="2.5" style="stroke:#181818;stroke-width:0.5;" width="80.4072" x="360.8" y="54"/><rect fill="#F1F1F1" height="10" style="stroke:#181818;stroke-width:0.5;" width="15" x="421.2072" y="59"/><rect fill="#F1F1F1" height="2" style="stroke:#181818;stroke-width:0.5;" width="4" x="419.2072" y="61"/><rect fill="#F1F1F1" height="2" style="stroke:#181818;stroke-width:0.5;" width="4" x="419.2072" y="65"/><text fill="#000000" font-family="sans-serif" font-size="14" lengthAdjust="spacing" textLength="40.4072" x="375.8" y="86.9951">Nginx</text></g><!--entity FastAPI--><g id="elem_FastAPI"><rect fill="#F1F1F1" height="46.2969" rx="2.5" ry="2.5" style="stroke:#181818;stroke-width:0.5;" width="91.5635" x="40.22" y="237.3"/><rect fill="#F1F1F1" height="10" style="stroke:#181818;stroke-width:0.5;" width="15" x="111.7835" y="242.3"/><rect fill="#F1F1F1" height="2" style="stroke:#181818;stroke-width:0.5;" width="4" x="109.7835" y="244.3"/><rect fill="#F1F1F1" height="2" style="stroke:#181818;stroke-width:0.5;" width="4" x="109.7835" y="248.3"/><text fill="#000000" font-family="sans-serif" font-size="14" lengthAdjust="spacing" textLength="51.5635" x="55.22" y="270.2951">FastAPI</text></g><!--entity Uvicorn--><g id="elem_Uvicorn"><rect fill="#F1F1F1" height="46.2969" rx="2.5" ry="2.5" style="stroke:#181818;stroke-width:0.5;" width="93.3135" x="166.34" y="237.3"/><rect fill="#F1F1F1" height="10" style="stroke:#181818;stroke-width:0.5;" width="15" x="239.6535" y="242.3"/><rect fill="#F1F1F1" height="2" style="stroke:#181818;stroke-width:0.5;" width="4" x="237.6535" y="244.3"/><rect fill="#F1F1F1" height="2" style="stroke:#181818;stroke-width:0.5;" width="4" x="237.6535" y="248.3"/><text fill="#000000" font-family="sans-serif" font-size="14" lengthAdjust="spacing" textLength="53.3135" x="181.34" y="270.2951">Uvicorn</text></g><!--entity api2--><g id="elem_api2"><rect fill="#F1F1F1" height="46.2969" rx="2.5" ry="2.5" style="stroke:#181818;stroke-width:0.5;" width="91.5635" x="370.22" y="237.3"/><rect fill="#F1F1F1" height="10" style="stroke:#181818;stroke-width:0.5;" width="15" x="441.7835" y="242.3"/><rect fill="#F1F1F1" height="2" style="stroke:#181818;stroke-width:0.5;" width="4" x="439.7835" y="244.3"/><rect fill="#F1F1F1" height="2" style="stroke:#181818;stroke-width:0.5;" width="4" x="439.7835" y="248.3"/><text fill="#000000" font-family="sans-serif" font-size="14" lengthAdjust="spacing" textLength="51.5635" x="385.22" y="270.2951">FastAPI</text></g><!--entity uv2--><g id="elem_uv2"><rect fill="#F1F1F1" height="46.2969" rx="2.5" ry="2.5" style="stroke:#181818;stroke-width:0.5;" width="93.3135" x="496.34" y="237.3"/><rect fill="#F1F1F1" height="10" style="stroke:#181818;stroke-width:0.5;" width="15" x="569.6535" y="242.3"/><rect fill="#F1F1F1" height="2" style="stroke:#181818;stroke-width:0.5;" width="4" x="567.6535" y="244.3"/><rect fill="#F1F1F1" height="2" style="stroke:#181818;stroke-width:0.5;" width="4" x="567.6535" y="248.3"/><text fill="#000000" font-family="sans-serif" font-size="14" lengthAdjust="spacing" textLength="53.3135" x="511.34" y="270.2951">Uvicorn</text></g><!--entity db--><g id="elem_db"><path d="M265.62,414.59 C265.62,404.59 315.9965,404.59 315.9965,404.59 C315.9965,404.59 366.3729,404.59 366.3729,414.59 L366.3729,439.8869 C366.3729,449.8869 315.9965,449.8869 315.9965,449.8869 C315.9965,449.8869 265.62,449.8869 265.62,439.8869 L265.62,414.59 " fill="#F1F1F1" style="stroke:#181818;stroke-width:0.5;"/><path d="M265.62,414.59 C265.62,424.59 315.9965,424.59 315.9965,424.59 C315.9965,424.59 366.3729,424.59 366.3729,414.59 " fill="none" style="stroke:#181818;stroke-width:0.5;"/><text fill="#000000" font-family="sans-serif" font-size="14" lengthAdjust="spacing" textLength="80.7529" x="275.62" y="441.5851">PostgreSQL</text></g><!--entity redis--><g id="elem_redis"><path d="M401.79,414.59 C401.79,404.59 430.9956,404.59 430.9956,404.59 C430.9956,404.59 460.2011,404.59 460.2011,414.59 L460.2011,439.8869 C460.2011,449.8869 430.9956,449.8869 430.9956,449.8869 C430.9956,449.8869 401.79,449.8869 401.79,439.8869 L401.79,414.59 " fill="#F1F1F1" style="stroke:#181818;stroke-width:0.5;"/><path d="M401.79,414.59 C401.79,424.59 430.9956,424.59 430.9956,424.59 C430.9956,424.59 460.2011,424.59 460.2011,414.59 " fill="none" style="stroke:#181818;stroke-width:0.5;"/><text fill="#000000" font-family="sans-serif" font-size="14" lengthAdjust="spacing" textLength="38.4111" x="411.79" y="441.5851">Redis</text></g><!--link lb to app1--><g id="link_lb_app1"><path d="M469.9871,124.5593 C469.8707,124.748 469.7535,124.9364 469.6356,125.1243 C469.3998,125.5002 469.1612,125.8744 468.9196,126.2467 C468.4365,126.9914 467.9419,127.7287 467.4354,128.4572 C466.4225,129.9141 465.3625,131.3356 464.2536,132.7101 C462.0358,135.4591 459.6225,138.02 457,140.3 C420.72,171.83 392.44,144.43 354,173.3 C336.99,186.075 323.3375,205.375 313.5613,222.4713 C311.1172,226.7453 308.9154,230.8816 306.964,234.7438 C306.72,235.2266 306.48,235.7051 306.2439,236.1791 C306.1849,236.2975 308.7939,231.0414 308.7354,231.1594 " fill="none" id="lb-to-app1" style="stroke:#181818;stroke-width:1;"/><polygon fill="#181818" points="306.0676,236.5337,313.6521,230.2507,308.2907,232.0551,306.4864,226.6937,306.0676,236.5337" style="stroke:#181818;stroke-width:1;"/><text fill="#000000" font-family="sans-serif" font-size="13" lengthAdjust="spacing" textLength="33.4966" x="445.25" y="161.3669">HTTP</text></g><!--link lb to app2--><g id="link_lb_app2"><path d="M506.043,87.9582 C506.318,88.1105 506.5953,88.2645 506.8748,88.4202 C515.8197,93.4009 527.0419,100.0906 538.9538,108.2637 C562.7775,124.61 589.36,146.89 606,173.3 C608.415,177.1313 610.5391,181.2234 612.4072,185.4655 C612.8742,186.5261 613.3252,187.596 613.7608,188.6735 C613.8152,188.8082 611.6413,183.3721 611.6953,183.507 " fill="none" id="lb-to-app2" style="stroke:#181818;stroke-width:1;"/><polygon fill="#181818" points="613.9234,189.0779,614.2951,179.2361,612.0666,184.4355,606.8672,182.207,613.9234,189.0779" style="stroke:#181818;stroke-width:1;"/><text fill="#000000" font-family="sans-serif" font-size="13" lengthAdjust="spacing" textLength="33.4966" x="600.03" y="161.3669">HTTP</text></g><!--link app1 to dbsrv--><g id="link_app1_dbsrv"><path d="M306.1316,277.4059 C306.1906,277.4903 306.2498,277.575 306.3092,277.6598 C306.5469,277.9993 306.7883,278.342 307.0334,278.6879 C307.5235,279.3797 308.0283,280.0839 308.5473,280.7989 C310.6233,283.659 312.9275,286.6922 315.4375,289.7937 C325.4775,302.2 338.81,315.7 354,323.59 C402.58,348.83 435.37,303.91 476,340.59 C479.3525,343.6175 482.2112,347.0847 484.6455,350.85 C485.2541,351.7914 485.8361,352.7513 486.3927,353.7277 C486.671,354.2159 486.943,354.7082 487.2087,355.2043 C487.3415,355.4524 487.4728,355.7014 487.6026,355.9514 C487.6675,356.0763 485.0012,350.859 485.0653,350.9844 " fill="none" id="app1-to-dbsrv" style="stroke:#181818;stroke-width:1;"/><polygon fill="#181818" points="487.7961,356.327,487.2616,346.4926,485.5204,351.8748,480.1382,350.1336,487.7961,356.327" style="stroke:#181818;stroke-width:1;"/></g><!--link app2 to dbsrv--><g id="link_app2_dbsrv"><path d="M613.9717,307.8478 C613.9321,307.9442 613.8924,308.0406 613.8525,308.137 C613.5336,308.9081 613.2072,309.6766 612.8731,310.4417 C612.2049,311.9717 611.5059,313.4874 610.7752,314.9801 C609.3138,317.9655 607.725,320.8588 606,323.59 C589.62,349.525 565.1825,373.36 543.595,391.5213 C532.8013,400.6019 522.72,408.2641 514.7147,414.0611 C512.7134,415.5104 510.8418,416.843 509.1212,418.0522 C508.6911,418.3545 508.2704,418.649 507.8595,418.9357 C507.654,419.0791 512.3772,415.7952 512.1767,415.9346 " fill="none" id="app2-to-dbsrv" style="stroke:#181818;stroke-width:1;"/><polygon fill="#181818" points="507.2505,419.36,516.9233,417.5061,511.3556,416.5055,512.3562,410.9379,507.2505,419.36" style="stroke:#181818;stroke-width:1;"/></g><!--SRC=[ROyz2uCm48Rt_8h3tS6C7GgMKbgGOgkTYiDfWWYIXCI6Gkb_hucc7z9CkUVzE4v8nY7A93BOO8-YuJe2DD3Ny20mlkknxSIz8az2XFUcIa71jUKQ4cz5fP9Wtg4PqlnGJTF5TetKud-OXZ1TXYVUqTyIHs-MVhgsE62DXi-5lexLHjkvZmKzogKPMisBKpQR5lgPiyvuIRkVMp7U7yVhwROLxCio_q8q82yxwFSIBxt75m00]--></g></svg>