<svg xmlns="http://www.w3.org/2000/svg" xmlns:xlink="http://www.w3.org/1999/xlink" contentStyleType="text/css" height="540px" preserveAspectRatio="none" style="width:340px;height:540px;background:#FFFFFF;" version="1.1" viewBox="0 0 340 540" width="340px" zoomAndPan="magnify"><defs/><g><!--class user--><g id="elem_user"><rect codeLine="1" fill="#F1F1F1" height="129.4844" id="user" rx="2.5" ry="2.5" style="stroke:#181818;stroke-width:0.5;" width="202.6748" x="9.29" y="7"/><ellipse cx="90.4223" cy="23" fill="#ADD1B2" rx="11" ry="11" style="stroke:#181818;stroke-width:1;"/><path d="M94.5317,29 L86.8129,29 L86.8129,16.6094 L94.5317,16.6094 L94.5317,18.7656 L89.2661,18.7656 L89.2661,21.4375 L94.0317,21.4375 L94.0317,23.5938 L89.2661,23.5938 L89.2661,26.8438 L94.5317,26.8438 L94.5317,29 Z " fill="#000000"/><text fill="#000000" font-family="sans-serif" font-size="14" lengthAdjust="spacing" textLength="31.9102" x="110.9223" y="27.8467">User</text><line style="stroke:#181818;stroke-width:0.5;" x1="10.29" x2="210.9648" y1="39" y2="39"/><ellipse cx="20.29" cy="52.6484" fill="#000000" rx="3" ry="3" style="stroke:#000000;stroke-width:1;"/><text fill="#000000" font-family="sans-serif" font-size="14" lengthAdjust="spacing" textLength="105.5127" x="29.29" y="55.9951">id : bigint &#171;PK&#187;</text><line style="stroke:#181818;stroke-width:1;" x1="10.29" x2="210.9648" y1="63.2969" y2="63.2969"/><ellipse cx="20.29" cy="76.9453" fill="#000000" rx="3" ry="3" style="stroke:#000000;stroke-width:1;"/><text fill="#000000" font-family="sans-serif" font-size="14" lengthAdjust="spacing" textLength="105.752" x="29.29" y="80.292">email : varchar</text><ellipse cx="20.29" cy="93.2422" fill="#000000" rx="3" ry="3" style="stroke:#000000;stroke-width:1;"/><text fill="#000000" font-family="sans-serif" font-size="14" lengthAdjust="spacing" textLength="137.3818" x="29.29" y="96.5889">username : varchar</text><text fill="#000000" font-family="sans-serif" font-size="14" lengthAdjust="spacing" textLength="163.5566" x="29.29" y="112.8857">display_name : varchar</text><text fill="#000000" font-family="sans-serif" font-size="14" lengthAdjust="spacing" textLength="176.6748" x="29.29" y="129.1826">created_at : timestamptz</text></g><!--class doc--><g id="elem_doc"><rect codeLine="10" fill="#F1F1F1" height="145.7813" id="doc" rx="2.5" ry="2.5" style="stroke:#181818;stroke-width:0.5;" width="207.2549" x="7" y="387.38"/><ellipse cx="70.1128" cy="403.38" fill="#ADD1B2" rx="11" ry="11" style="stroke:#181818;stroke-width:1;"/><path d="M74.2222,409.38 L66.5034,409.38 L66.5034,396.9894 L74.2222,396.9894 L74.2222,399.1456 L68.9565,399.1456 L68.9565,401.8175 L73.7222,401.8175 L73.7222,403.9738 L68.9565,403.9738 L68.9565,407.2238 L74.2222,407.2238 L74.2222,409.38 Z " fill="#000000"/><text fill="#000000" font-family="sans-serif" font-size="14" lengthAdjust="spacing" textLength="72.5293" x="90.6128" y="408.2267">Document</text><line style="stroke:#181818;stroke-width:0.5;" x1="8" x2="213.2549" y1="419.38" y2="419.38"/><ellipse cx="18" cy="433.0284" fill="#000000" rx="3" ry="3" style="stroke:#000000;stroke-width:1;"/><text fill="#000000" font-family="sans-serif" font-size="14" lengthAdjust="spacing" textLength="105.5127" x="27" y="436.3751">id : bigint &#171;PK&#187;</text><line style="stroke:#181818;stroke-width:1;" x1="8" x2="213.2549" y1="443.6769" y2="443.6769"/><ellipse cx="18" cy="457.3253" fill="#000000" rx="3" ry="3" style="stroke:#000000;stroke-width:1;"/><text fill="#000000" font-family="sans-serif" font-size="14" lengthAdjust="spacing" textLength="68.8652" x="27" y="460.672">title : text</text><ellipse cx="18" cy="473.6222" fill="#000000" rx="3" ry="3" style="stroke:#000000;stroke-width:1;"/><text fill="#000000" font-family="sans-serif" font-size="14" lengthAdjust="spacing" textLength="155.3809" x="27" y="476.9689">owner_id : bigint &#171;FK&#187;</text><text fill="#000000" font-family="sans-serif" font-size="14" lengthAdjust="spacing" textLength="152.7627" x="27" y="493.2657">folder_id : bigint &#171;FK&#187;</text><text fill="#000000" font-family="sans-serif" font-size="14" lengthAdjust="spacing" textLength="153.1523" x="27" y="509.5626">current_content : text</text><text fill="#000000" font-family="sans-serif" font-size="14" lengthAdjust="spacing" textLength="181.2549" x="27" y="525.8595">updated_at : timestamptz</text></g><!--class folder--><g id="elem_folder"><rect codeLine="20" fill="#F1F1F1" height="96.8906" id="folder" rx="2.5" ry="2.5" style="stroke:#181818;stroke-width:0.5;" width="181.3809" x="151.94" y="213.49"/><ellipse cx="216.4986" cy="229.49" fill="#ADD1B2" rx="11" ry="11" style="stroke:#181818;stroke-width:1;"/><path d="M220.608,235.49 L212.8892,235.49 L212.8892,223.0994 L220.608,223.0994 L220.608,225.2556 L215.3423,225.2556 L215.3423,227.9275 L220.108,227.9275 L220.108,230.0837 L215.3423,230.0837 L215.3423,233.3337 L220.608,233.3337 L220.608,235.49 Z " fill="#000000"/><text fill="#000000" font-family="sans-serif" font-size="14" lengthAdjust="spacing" textLength="43.7637" x="236.9986" y="234.3367">Folder</text><line style="stroke:#181818;stroke-width:0.5;" x1="152.94" x2="332.3209" y1="245.49" y2="245.49"/><ellipse cx="162.94" cy="259.1384" fill="#000000" rx="3" ry="3" style="stroke:#000000;stroke-width:1;"/><text fill="#000000" font-family="sans-serif" font-size="14" lengthAdjust="spacing" textLength="105.5127" x="171.94" y="262.4851">id : bigint &#171;PK&#187;</text><line style="stroke:#181818;stroke-width:1;" x1="152.94" x2="332.3209" y1="269.7869" y2="269.7869"/><ellipse cx="162.94" cy="283.4353" fill="#000000" rx="3" ry="3" style="stroke:#000000;stroke-width:1;"/><text fill="#000000" font-family="sans-serif" font-size="14" lengthAdjust="spacing" textLength="81.1973" x="171.94" y="286.782">name : text</text><ellipse cx="162.94" cy="299.7322" fill="#000000" rx="3" ry="3" style="stroke:#000000;stroke-width:1;"/><text fill="#000000" font-family="sans-serif" font-size="14" lengthAdjust="spacing" textLength="155.3809" x="171.94" y="303.0789">owner_id : bigint &#171;FK&#187;</text></g><!--link user to doc--><g id="link_user_doc"><path codeLine="27" d="M103.8998,144.7627 C101.9098,168.7927 100.61,188.39 99.63,213.49 C97.95,256.52 98.04,267.35 99.63,310.38 C100.55,335.37 100.9606,344.7329 102.8306,369.0629 " fill="none" id="user-doc" style="stroke:#181818;stroke-width:1;"/><line style="stroke:#181818;stroke-width:1;" x1="100.2435" x2="108.2162" y1="140.4462" y2="141.1065"/><line style="stroke:#181818;stroke-width:1;" x1="99.9959" x2="107.9686" y1="143.436" y2="144.0962"/><line style="stroke:#181818;stroke-width:1;" x1="103.8998" x2="104.56" y1="144.7627" y2="136.79"/><line style="stroke:#181818;stroke-width:1;" x1="103.5969" x2="110.1924" y1="379.0335" y2="386.5502"/><line style="stroke:#181818;stroke-width:1;" x1="103.5969" x2="98.2276" y1="379.0335" y2="387.4698"/><line style="stroke:#181818;stroke-width:1;" x1="103.5969" x2="104.21" y1="379.0335" y2="387.01"/><ellipse cx="103.1371" cy="373.0512" fill="none" rx="4" ry="4" style="stroke:#181818;stroke-width:1;"/><text fill="#000000" font-family="sans-serif" font-size="13" lengthAdjust="spacing" textLength="33.5981" x="100.63" y="266.4969">owns</text></g><!--link user to folder--><g id="link_user_folder"><path codeLine="28" d="M160.2823,143.5306 C177.7523,168.4506 182.4848,175.1928 198.6848,198.2928 " fill="none" id="user-folder" style="stroke:#181818;stroke-width:1;"/><line style="stroke:#181818;stroke-width:1;" x1="154.7108" x2="161.2615" y1="142.5515" y2="137.9592"/><line style="stroke:#181818;stroke-width:1;" x1="156.4329" x2="162.9836" y1="145.008" y2="140.4157"/><line style="stroke:#181818;stroke-width:1;" x1="160.2823" x2="155.69" y1="143.5306" y2="136.98"/><line style="stroke:#181818;stroke-width:1;" x1="204.4266" x2="213.9324" y1="206.4801" y2="209.5849"/><line style="stroke:#181818;stroke-width:1;" x1="204.4266" x2="204.1076" y1="206.4801" y2="216.4751"/><line style="stroke:#181818;stroke-width:1;" x1="204.4266" x2="209.02" y1="206.4801" y2="213.03"/><ellipse cx="200.9815" cy="201.5678" fill="none" rx="4" ry="4" style="stroke:#181818;stroke-width:1;"/><text fill="#000000" font-family="sans-serif" font-size="13" lengthAdjust="spacing" textLength="33.5981" x="185.53" y="179.5569">owns</text></g><!--link folder to doc--><g id="link_folder_doc"><path codeLine="29" d="M206.0457,317.3485 C190.6257,340.2785 186.3328,346.662 169.2228,372.112 " fill="none" id="folder-doc" style="stroke:#181818;stroke-width:1;"/><line style="stroke:#181818;stroke-width:1;" x1="204.9586" x2="211.5971" y1="311.7971" y2="316.2614"/><line style="stroke:#181818;stroke-width:1;" x1="203.2845" x2="209.923" y1="314.2866" y2="318.7509"/><line style="stroke:#181818;stroke-width:1;" x1="206.0457" x2="210.51" y1="317.3485" y2="310.71"/><line style="stroke:#181818;stroke-width:1;" x1="163.6435" x2="164.1593" y1="380.4109" y2="390.3976"/><line style="stroke:#181818;stroke-width:1;" x1="163.6435" x2="154.2007" y1="380.4109" y2="383.7024"/><line style="stroke:#181818;stroke-width:1;" x1="163.6435" x2="159.18" y1="380.4109" y2="387.05"/><ellipse cx="166.991" cy="375.4316" fill="none" rx="4" ry="4" style="stroke:#181818;stroke-width:1;"/><text fill="#000000" font-family="sans-serif" font-size="13" lengthAdjust="spacing" textLength="55.0278" x="189.45" y="353.4469">contains</text></g><!--SRC=[ZL6zpi8m3Dpx51OZKby08IR4miB2N9d4GAGcgHANVzuTDmqI_VGXcYNndS_sEUJOy1KcsqXX0XYXbGVS2v0pDHfci3C7unZcyyrwiKXuMVOqMJIrP9mmg2E67kpq3YtzmRM9JOtNwXzA1K8cNI4BmSPIPBGDtufdKL0UR-bLQoL88sglHaueuhfhntJX7l5dHw4QobPlsTxN-ZkhsX1aX4fvnt9_bcqR_TF2AXLF1le-8ptaZOsm8CtIxpqUPUdlQKqpaEmuW7FppEHe8EaCed7n1G00]--></g></svg>