<svg xmlns="http://www.w3.org/2000/svg" xmlns:xlink="http://www.w3.org/1999/xlink" contentStyleType="text/css" height="152px" preserveAspectRatio="none" style="width:544px;height:152px;background:#FFFFFF;" version="1.1" viewBox="0 0 544 152" width="544px" zoomAndPan="magnify"><defs/><g><rect fill="#F1F1F1" height="20.2969" rx="5" ry="5" style="stroke:#F1F1F1;stroke-width:1.5;" width="68.0498" x="10" y="50.5938"/><text fill="#000000" font-family="sans-serif" font-size="14" font-weight="bold" lengthAdjust="spacing" textLength="34.6992" x="15" y="65.5889">user</text><text fill="#000000" font-family="sans-serif" font-size="14" lengthAdjust="spacing" textLength="13.3506" x="59.6992" y="65.5889">&#160;&#160;&#160;</text><line style="stroke:#000000;stroke-width:1;" x1="54.6992" x2="54.6992" y1="50.5938" y2="70.8906"/><rect fill="none" height="20.2969" rx="5" ry="5" style="stroke:#000000;stroke-width:1.5;" width="68.0498" x="10" y="50.5938"/><rect fill="#F1F1F1" height="101.4844" rx="5" ry="5" style="stroke:#F1F1F1;stroke-width:1.5;" width="256.0244" x="115" y="10"/><text fill="#000000" font-family="sans-serif" font-size="14" font-weight="bold" lengthAdjust="spacing" textLength="14.8203" x="120" y="24.9951">id</text><text fill="#000000" font-family="sans-serif" font-size="14" lengthAdjust="spacing" textLength="8.9072" x="224.5" y="24.9951">1</text><line style="stroke:#000000;stroke-width:1;" x1="219.5" x2="219.5" y1="10" y2="30.2969"/><line style="stroke:#000000;stroke-width:1;" x1="115" x2="371.0244" y1="30.2969" y2="30.2969"/><text fill="#000000" font-family="sans-serif" font-size="14" font-weight="bold" lengthAdjust="spacing" textLength="43.4971" x="120" y="45.292">name</text><text fill="#000000" font-family="sans-serif" font-size="14" lengthAdjust="spacing" textLength="33.667" x="224.5" y="45.292">Alice</text><line style="stroke:#000000;stroke-width:1;" x1="219.5" x2="219.5" y1="30.2969" y2="50.5938"/><line style="stroke:#000000;stroke-width:1;" x1="115" x2="371.0244" y1="50.5938" y2="50.5938"/><text fill="#000000" font-family="sans-serif" font-size="14" font-weight="bold" lengthAdjust="spacing" textLength="43.1279" x="120" y="65.5889">email</text><text fill="#000000" font-family="sans-serif" font-size="14" lengthAdjust="spacing" textLength="141.5244" x="224.5" y="65.5889">alice@example.com</text><line style="stroke:#000000;stroke-width:1;" x1="219.5" x2="219.5" y1="50.5938" y2="70.8906"/><line style="stroke:#000000;stroke-width:1;" x1="115" x2="371.0244" y1="70.8906" y2="70.8906"/><text fill="#000000" font-family="sans-serif" font-size="14" font-weight="bold" lengthAdjust="spacing" textLength="39.1494" x="120" y="85.8857">roles</text><text fill="#000000" font-family="sans-serif" font-size="14" lengthAdjust="spacing" textLength="13.3506" x="224.5" y="85.8857">&#160;&#160;&#160;</text><line style="stroke:#000000;stroke-width:1;" x1="219.5" x2="219.5" y1="70.8906" y2="91.1875"/><line style="stroke:#000000;stroke-width:1;" x1="115" x2="371.0244" y1="91.1875" y2="91.1875"/><text fill="#000000" font-family="sans-serif" font-size="14" font-weight="bold" lengthAdjust="spacing" textLength="94.5" x="120" y="106.1826">preferences</text><text fill="#000000" font-family="sans-serif" font-size="14" lengthAdjust="spacing" textLength="13.3506" x="224.5" y="106.1826">&#160;&#160;&#160;</text><line style="stroke:#000000;stroke-width:1;" x1="219.5" x2="219.5" y1="91.1875" y2="111.4844"/><rect fill="none" height="101.4844" rx="5" ry="5" style="stroke:#000000;stroke-width:1.5;" width="256.0244" x="115" y="10"/><rect fill="#F1F1F1" height="40.5938" rx="5" ry="5" style="stroke:#F1F1F1;stroke-width:1.5;" width="53.8662" x="443" y="41.2422"/><text fill="#000000" font-family="sans-serif" font-size="14" lengthAdjust="spacing" textLength="43.8662" x="448" y="56.2373">admin</text><line style="stroke:#000000;stroke-width:1;" x1="443" x2="496.8662" y1="61.5391" y2="61.5391"/><text fill="#000000" font-family="sans-serif" font-size="14" lengthAdjust="spacing" textLength="41.2002" x="448" y="76.5342">editor</text><rect fill="none" height="40.5938" rx="5" ry="5" style="stroke:#000000;stroke-width:1.5;" width="53.8662" x="443" y="41.2422"/><rect fill="#F1F1F1" height="40.5938" rx="5" ry="5" style="stroke:#F1F1F1;stroke-width:1.5;" width="124.4941" x="408" y="100.2422"/><text fill="#000000" font-family="sans-serif" font-size="14" font-weight="bold" lengthAdjust="spacing" textLength="50.2373" x="413" y="115.2373">theme</text><text fill="#000000" font-family="sans-serif" font-size="14" lengthAdjust="spacing" textLength="31.3291" x="496.165" y="115.2373">dark</text><line style="stroke:#000000;stroke-width:1;" x1="491.165" x2="491.165" y1="100.2422" y2="120.5391"/><line style="stroke:#000000;stroke-width:1;" x1="408" x2="532.4941" y1="120.5391" y2="120.5391"/><text fill="#000000" font-family="sans-serif" font-size="14" font-weight="bold" lengthAdjust="spacing" textLength="73.165" x="413" y="135.5342">language</text><text fill="#000000" font-family="sans-serif" font-size="14" lengthAdjust="spacing" textLength="17.4863" x="496.165" y="135.5342">en</text><line style="stroke:#000000;stroke-width:1;" x1="491.165" x2="491.165" y1="120.5391" y2="140.8359"/><rect fill="none" height="40.5938" rx="5" ry="5" style="stroke:#000000;stroke-width:1.5;" width="124.4941" x="408" y="100.2422"/><path d="M358.5,80.7422 L371.5,80.7422 C393.0334,80.7422 416.7497,76.2664 435.4575,71.6595 " fill="none" style="stroke:#000000;stroke-width:1;stroke-dasharray:3.0,3.0;"/><path d="M436.2454,74.7355 L437.7645,71.0686 L434.6696,68.5836 L443.1475,69.6898 L436.2454,74.7355 " fill="#000000" style="stroke:#000000;stroke-width:1;"/><ellipse cx="358.5" cy="80.7422" fill="#000000" rx="3" ry="3" style="stroke:#000000;stroke-width:1;"/><path d="M358.5,101.7422 L371.5,101.7422 C381.0982,101.7422 391.1302,102.6314 400.9589,104.0252 " fill="none" style="stroke:#000000;stroke-width:1;stroke-dasharray:3.0,3.0;"/><path d="M400.4958,107.0116 L403.1987,104.3725 L401.4221,101.0388 L408.4249,105.1829 L400.4958,107.0116 " fill="#000000" style="stroke:#000000;stroke-width:1;"/><ellipse cx="358.5" cy="101.7422" fill="#000000" rx="3" ry="3" style="stroke:#000000;stroke-width:1;"/><path d="M65.5,60.7422 L78.5,60.7422 C88.0293,60.7422 97.8701,60.7422 107.778,60.7422 " fill="none" style="stroke:#000000;stroke-width:1;stroke-dasharray:3.0,3.0;"/><path d="M107.778,63.7765 L110.0537,60.7422 L107.778,57.7079 L115.3636,60.7422 L107.778,63.7765 " fill="#000000" style="stroke:#000000;stroke-width:1;"/><ellipse cx="65.5" cy="60.7422" fill="#000000" rx="3" ry="3" style="stroke:#000000;stroke-width:1;"/><!--SRC=[JOzFJm8n4CNl_HIJdY11uf8LoPvG41C49I9SZ8Uw7R2wdP9fTwCnV7VBeh8zD9dtUs_-37rG7Dwz8_4j83vPUcIPmR6g5QDZdNHE0YcBKP9NXSbHDW1QPOe3KGSon4zbTmLsSsURBdO5-kXwbafRGx8JWze4n_AbuTenRf2HyjfxMgU6uGsFAsZ57utUDImKRKkrhJcI_8TxSVptOeYawvl58fh3QZw32jaRHv1qU-Uzj3jeJTZ0lQiWkO3aCalJBEt3wca41zmMhTl53BmhEKVGnWSshsM8-RQOgah1Oqd1MCpWOOSq7T_z2N13bM575Yc8wNf-ClJJisiJO8aSDu7rN8nneyeYn4JkjA5j5gTFpWPYzdjT1aXYv69V_efi-GC0]--></g></svg>