<svg xmlns="http://www.w3.org/2000/svg" xmlns:xlink="http://www.w3.org/1999/xlink" contentStyleType="text/css" height="753px" preserveAspectRatio="none" style="width:531px;height:753px;background:#FFFFFF;" version="1.1" viewBox="0 0 531 753" width="531px" zoomAndPan="magnify"><defs/><g><rect fill="#F1F1F1" height="36.2969" rx="12.5" ry="12.5" style="stroke:#181818;stroke-width:1.5;" width="133.21" x="10" y="357.7813"/><text fill="#000000" font-family="sans-serif" font-size="14" lengthAdjust="spacing" textLength="113.21" x="20" y="380.7764">Project Planning</text><rect fill="#F1F1F1" height="36.2969" rx="12.5" ry="12.5" style="stroke:#181818;stroke-width:1.5;" width="118.2666" x="193.21" y="76.2969"/><text fill="#000000" font-family="sans-serif" font-size="14" lengthAdjust="spacing" textLength="98.2666" x="203.21" y="99.292">Requirements</text><rect fill="#F1F1F1" height="36.2969" rx="12.5" ry="12.5" style="stroke:#181818;stroke-width:1.5;" width="104.8545" x="361.4766" y="20"/><text fill="#000000" font-family="sans-serif" font-size="14" lengthAdjust="spacing" textLength="84.8545" x="371.4766" y="42.9951">User Stories</text><path d="M311.4766,94.4453 L321.4766,94.4453 C336.4766,94.4453 336.4766,38.1484 351.4766,38.1484 L361.4766,38.1484 " fill="none" style="stroke:#181818;stroke-width:1;"/><rect fill="#F1F1F1" height="36.2969" rx="12.5" ry="12.5" style="stroke:#181818;stroke-width:1.5;" width="157.9219" x="361.4766" y="76.2969"/><text fill="#000000" font-family="sans-serif" font-size="14" lengthAdjust="spacing" textLength="137.9219" x="371.4766" y="99.292">Acceptance Criteria</text><path d="M311.4766,94.4453 L321.4766,94.4453 C336.4766,94.4453 336.4766,94.4453 351.4766,94.4453 L361.4766,94.4453 " fill="none" style="stroke:#181818;stroke-width:1;"/><rect fill="#F1F1F1" height="36.2969" rx="12.5" ry="12.5" style="stroke:#181818;stroke-width:1.5;" width="118.6016" x="361.4766" y="132.5938"/><text fill="#000000" font-family="sans-serif" font-size="14" lengthAdjust="spacing" textLength="98.6016" x="371.4766" y="155.5889">Priority Matrix</text><path d="M311.4766,94.4453 L321.4766,94.4453 C336.4766,94.4453 336.4766,150.7422 351.4766,150.7422 L361.4766,150.7422 " fill="none" style="stroke:#181818;stroke-width:1;"/><path d="M143.21,375.9297 L153.21,375.9297 C168.21,375.9297 168.21,94.4453 183.21,94.4453 L193.21,94.4453 " fill="none" style="stroke:#181818;stroke-width:1;"/><rect fill="#F1F1F1" height="36.2969" rx="12.5" ry="12.5" style="stroke:#181818;stroke-width:1.5;" width="68.3369" x="193.21" y="273.3359"/><text fill="#000000" font-family="sans-serif" font-size="14" lengthAdjust="spacing" textLength="48.3369" x="203.21" y="296.3311">Design</text><rect fill="#F1F1F1" height="36.2969" rx="12.5" ry="12.5" style="stroke:#181818;stroke-width:1.5;" width="106.3242" x="311.5469" y="188.8906"/><text fill="#000000" font-family="sans-serif" font-size="14" lengthAdjust="spacing" textLength="86.3242" x="321.5469" y="211.8857">Architecture</text><path d="M261.5469,291.4844 L271.5469,291.4844 C286.5469,291.4844 286.5469,207.0391 301.5469,207.0391 L311.5469,207.0391 " fill="none" style="stroke:#181818;stroke-width:1;"/><rect fill="#F1F1F1" height="36.2969" rx="12.5" ry="12.5" style="stroke:#181818;stroke-width:1.5;" width="147.5381" x="311.5469" y="245.1875"/><text fill="#000000" font-family="sans-serif" font-size="14" lengthAdjust="spacing" textLength="127.5381" x="321.5469" y="268.1826">Database Schema</text><path d="M261.5469,291.4844 L271.5469,291.4844 C286.5469,291.4844 286.5469,263.3359 301.5469,263.3359 L311.5469,263.3359 " fill="none" style="stroke:#181818;stroke-width:1;"/><rect fill="#F1F1F1" height="36.2969" rx="12.5" ry="12.5" style="stroke:#181818;stroke-width:1.5;" width="136.4844" x="311.5469" y="301.4844"/><text fill="#000000" font-family="sans-serif" font-size="14" lengthAdjust="spacing" textLength="116.4844" x="321.5469" y="324.4795">API Specification</text><path d="M261.5469,291.4844 L271.5469,291.4844 C286.5469,291.4844 286.5469,319.6328 301.5469,319.6328 L311.5469,319.6328 " fill="none" style="stroke:#181818;stroke-width:1;"/><rect fill="#F1F1F1" height="36.2969" rx="12.5" ry="12.5" style="stroke:#181818;stroke-width:1.5;" width="100.3291" x="311.5469" y="357.7813"/><text fill="#000000" font-family="sans-serif" font-size="14" lengthAdjust="spacing" textLength="80.3291" x="321.5469" y="380.7764">UI Mockups</text><path d="M261.5469,291.4844 L271.5469,291.4844 C286.5469,291.4844 286.5469,375.9297 301.5469,375.9297 L311.5469,375.9297 " fill="none" style="stroke:#181818;stroke-width:1;"/><path d="M143.21,375.9297 L153.21,375.9297 C168.21,375.9297 168.21,291.4844 183.21,291.4844 L193.21,291.4844 " fill="none" style="stroke:#181818;stroke-width:1;"/><rect fill="#F1F1F1" height="36.2969" rx="12.5" ry="12.5" style="stroke:#181818;stroke-width:1.5;" width="114.2471" x="193.21" y="470.375"/><text fill="#000000" font-family="sans-serif" font-size="14" lengthAdjust="spacing" textLength="94.2471" x="203.21" y="493.3701">Development</text><rect fill="#F1F1F1" height="36.2969" rx="12.5" ry="12.5" style="stroke:#181818;stroke-width:1.5;" width="80.3613" x="357.457" y="414.0781"/><text fill="#000000" font-family="sans-serif" font-size="14" lengthAdjust="spacing" textLength="60.3613" x="367.457" y="437.0732">Backend</text><path d="M307.457,488.5234 L317.457,488.5234 C332.457,488.5234 332.457,432.2266 347.457,432.2266 L357.457,432.2266 " fill="none" style="stroke:#181818;stroke-width:1;"/><rect fill="#F1F1F1" height="36.2969" rx="12.5" ry="12.5" style="stroke:#181818;stroke-width:1.5;" width="83.1094" x="357.457" y="470.375"/><text fill="#000000" font-family="sans-serif" font-size="14" lengthAdjust="spacing" textLength="63.1094" x="367.457" y="493.3701">Frontend</text><path d="M307.457,488.5234 L317.457,488.5234 C332.457,488.5234 332.457,488.5234 347.457,488.5234 L357.457,488.5234 " fill="none" style="stroke:#181818;stroke-width:1;"/><rect fill="#F1F1F1" height="36.2969" rx="12.5" ry="12.5" style="stroke:#181818;stroke-width:1.5;" width="71.5977" x="357.457" y="526.6719"/><text fill="#000000" font-family="sans-serif" font-size="14" lengthAdjust="spacing" textLength="51.5977" x="367.457" y="549.667">Testing</text><path d="M307.457,488.5234 L317.457,488.5234 C332.457,488.5234 332.457,544.8203 347.457,544.8203 L357.457,544.8203 " fill="none" style="stroke:#181818;stroke-width:1;"/><path d="M143.21,375.9297 L153.21,375.9297 C168.21,375.9297 168.21,488.5234 183.21,488.5234 L193.21,488.5234 " fill="none" style="stroke:#181818;stroke-width:1;"/><rect fill="#F1F1F1" height="36.2969" rx="12.5" ry="12.5" style="stroke:#181818;stroke-width:1.5;" width="105.6338" x="193.21" y="639.2656"/><text fill="#000000" font-family="sans-serif" font-size="14" lengthAdjust="spacing" textLength="85.6338" x="203.21" y="662.2607">Deployment</text><rect fill="#F1F1F1" height="36.2969" rx="12.5" ry="12.5" style="stroke:#181818;stroke-width:1.5;" width="73.4912" x="348.8438" y="582.9688"/><text fill="#000000" font-family="sans-serif" font-size="14" lengthAdjust="spacing" textLength="53.4912" x="358.8438" y="605.9639">Staging</text><path d="M298.8438,657.4141 L308.8438,657.4141 C323.8438,657.4141 323.8438,601.1172 338.8438,601.1172 L348.8438,601.1172 " fill="none" style="stroke:#181818;stroke-width:1;"/><rect fill="#F1F1F1" height="36.2969" rx="12.5" ry="12.5" style="stroke:#181818;stroke-width:1.5;" width="95.0381" x="348.8438" y="639.2656"/><text fill="#000000" font-family="sans-serif" font-size="14" lengthAdjust="spacing" textLength="75.0381" x="358.8438" y="662.2607">Production</text><path d="M298.8438,657.4141 L308.8438,657.4141 C323.8438,657.4141 323.8438,657.4141 338.8438,657.4141 L348.8438,657.4141 " fill="none" style="stroke:#181818;stroke-width:1;"/><rect fill="#F1F1F1" height="36.2969" rx="12.5" ry="12.5" style="stroke:#181818;stroke-width:1.5;" width="94.8672" x="348.8438" y="695.5625"/><text fill="#000000" font-family="sans-serif" font-size="14" lengthAdjust="spacing" textLength="74.8672" x="358.8438" y="718.5576">Monitoring</text><path d="M298.8438,657.4141 L308.8438,657.4141 C323.8438,657.4141 323.8438,713.7109 338.8438,713.7109 L348.8438,713.7109 " fill="none" style="stroke:#181818;stroke-width:1;"/><path d="M143.21,375.9297 L153.21,375.9297 C168.21,375.9297 168.21,657.4141 183.21,657.4141 L193.21,657.4141 " fill="none" style="stroke:#181818;stroke-width:1;"/><!--SRC=[HL1DJyCm3BttL_W8aq0CbG_j1AmCCLQeLiRTfAOOrgGuJiN-FMdBu9RuVVZvNNb5qOPjrM2RJA0Gzq56eTYYjMphP3A1DNq55ch8ge__2Mmy2PJgX6aSN1j3hQ8r17DX9M4SveLm9EaESbJXxzui8y-r7LLYtYFPQ10Q1Xaglg8dACqxDQF5TN4FPKk6tzYWiXkbctl8dVaChHyzEzgwjWyue3TeFibMmtiXpkh-yqnUVu_AgDswtP-aLAn7PEYW2kPlL-uizxT6z2eQxRjA-efqaw-W8_6H3DFZqvFJzFZoO24CZww3wHbCBsPfEalFOVCyXnu-J0xkYXLu5oIsLR6FnRo6VjbXiiGEOHsiSaCpU6h9BhE7_G1kRSVnc27oyYN_9vodHpUiK9B49F2I9nczOTXgL1XNnTopk7rnT9ciqDO1w-XDDfcxw2kxY9K_]--></g></svg>