<svg xmlns="http://www.w3.org/2000/svg" xmlns:xlink="http://www.w3.org/1999/xlink" contentStyleType="text/css" height="481px" preserveAspectRatio="none" style="width:284px;height:481px;background:#FFFFFF;" version="1.1" viewBox="0 0 284 481" width="284px" zoomAndPan="magnify"><defs/><g><text fill="#000000" font-family="sans-serif" font-size="12" lengthAdjust="spacing" textLength="3.8145" x="70.1152" y="16.1387">&#160;</text><text fill="#000000" font-family="sans-serif" font-size="12" lengthAdjust="spacing" textLength="3.8145" x="70.1152" y="130.1074">&#160;</text><text fill="#000000" font-family="sans-serif" font-size="12" lengthAdjust="spacing" textLength="25.6055" x="48.3242" y="234.0762">dmz</text><text fill="#000000" font-family="sans-serif" font-size="12" lengthAdjust="spacing" textLength="68.9297" x="5" y="248.0449">10.0.1.0/24</text><text fill="#000000" font-family="sans-serif" font-size="12" lengthAdjust="spacing" textLength="46.2539" x="27.6758" y="363.6543">internal</text><text fill="#000000" font-family="sans-serif" font-size="12" lengthAdjust="spacing" textLength="68.9297" x="5" y="377.623">10.0.2.0/24</text><rect fill="#E2E2F0" height="5" style="stroke:#181818;stroke-width:1;" width="197.7383" x="78.9297" y="227.4219"/><rect fill="#E2E2F0" height="5" style="stroke:#181818;stroke-width:1;" width="197.7383" x="78.9297" y="357"/><path d="M132.7568,88.4531 L132.7568,123.4531 " fill="none" style="stroke:#181818;stroke-width:1;"/><path d="M132.7568,123.4531 L132.7568,158.4531 " fill="none" style="stroke:#181818;stroke-width:1;"/><path d="M134.7568,232.4219 L134.7568,275.2266 " fill="none" style="stroke:#181818;stroke-width:1;"/><text fill="#000000" font-family="sans-serif" font-size="11" lengthAdjust="spacing" textLength="45.4824" x="112.0156" y="255.1323">10.0.1.1</text><path d="M134.7568,309.1953 L134.7568,357 " fill="none" style="stroke:#181818;stroke-width:1;"/><text fill="#000000" font-family="sans-serif" font-size="11" lengthAdjust="spacing" textLength="45.4824" x="112.0156" y="336.9058">10.0.2.1</text><path d="M233.626,232.4219 L233.626,275.2266 " fill="none" style="stroke:#181818;stroke-width:1;"/><text fill="#000000" font-family="sans-serif" font-size="11" lengthAdjust="spacing" textLength="45.4824" x="210.8848" y="255.1323">10.0.1.2</text><path d="M233.626,309.1953 L233.626,357 " fill="none" style="stroke:#181818;stroke-width:1;"/><text fill="#000000" font-family="sans-serif" font-size="11" lengthAdjust="spacing" textLength="45.4824" x="210.8848" y="336.9058">10.0.2.2</text><path d="M130.7568,362 L130.7568,398.4023 " fill="none" style="stroke:#181818;stroke-width:1;"/><text fill="#000000" font-family="sans-serif" font-size="11" lengthAdjust="spacing" textLength="59.4795" x="101.0171" y="381.5093">10.0.2.100</text><path d="M103.0522,52.6748 C107.0253,43.1856 113.1669,44.261 119.166,50.6142 C121.8066,40.4509 126.5603,39.3491 134.564,45.5756 C140.7053,39.0527 147.5615,40.8096 149.3957,49.7159 C155.3793,42.8376 161.8877,44.6519 164.6859,52.9295 C171.4886,57.159 171.3107,62.1911 165.8969,67.4401 C173.0796,72.3787 171.3781,76.502 165.3386,80.8918 C162.2309,90.4982 156.1692,90.5283 149.532,84.4483 C146.7443,92.9592 138.6351,94.3941 133.1102,87.3354 C127.3101,92.5068 122.717,90.9091 119.4544,84.3751 C112.6618,92.316 106.8262,91.3264 102.877,81.693 C94.2379,81.5741 90.4824,75.5106 95.9656,68.1726 C91.9588,60.278 94.2808,54.7264 103.0522,52.6748 " fill="#F1F1F1" style="stroke:#181818;stroke-width:0.5;"/><text fill="#000000" font-family="sans-serif" font-size="12" lengthAdjust="spacing" textLength="47.6543" x="108.9297" y="70.623">internet</text><rect fill="#F1F1F1" height="33.9688" style="stroke:#181818;stroke-width:0.5;" width="45.6055" x="109.9541" y="158.4531"/><text fill="#000000" font-family="sans-serif" font-size="12" lengthAdjust="spacing" textLength="25.6055" x="119.9541" y="179.5918">dmz</text><rect fill="#F1F1F1" height="33.9688" style="stroke:#181818;stroke-width:0.5;" width="60.084" x="102.7148" y="275.2266"/><text fill="#000000" font-family="sans-serif" font-size="12" lengthAdjust="spacing" textLength="40.084" x="112.7148" y="296.3652">web01</text><rect fill="#F1F1F1" height="33.9688" style="stroke:#181818;stroke-width:0.5;" width="60.084" x="201.584" y="275.2266"/><text fill="#000000" font-family="sans-serif" font-size="12" lengthAdjust="spacing" textLength="40.084" x="211.584" y="296.3652">web02</text><rect fill="#F1F1F1" height="33.9688" style="stroke:#181818;stroke-width:0.5;" width="50.5039" x="107.5049" y="398.4023"/><text fill="#000000" font-family="sans-serif" font-size="12" lengthAdjust="spacing" textLength="30.5039" x="117.5049" y="419.541">db01</text><!--SRC=[oojFoKnCLwZcKW22pBoIrAAyr1A5wEACn89K1Lk5v9pyqfHOQrHPNLs5bDmgBh0Wa5-UNvGD4e0Q0WA9AIb5gSN5G0EK30tq3FGCzGpqZKoKkE0AobEJ30mLeZ7L6If1ROEfCiAcoWYcgXRL5H0d9kRWSOeHaKun8iefHWYdW40ABgCC310khWK0]--></g></svg>