<svg xmlns="http://www.w3.org/2000/svg" xmlns:xlink="http://www.w3.org/1999/xlink" contentStyleType="text/css" height="392px" preserveAspectRatio="none" style="width:417px;height:392px;background:#FFFFFF;" version="1.1" viewBox="0 0 417 392" width="417px" zoomAndPan="magnify"><defs/><g><rect fill="#FFFFFF" height="180.7969" style="stroke:#181818;stroke-width:1;" width="10" x="138.0156" y="112.4297"/><rect fill="#FFFFFF" height="122.5313" style="stroke:#181818;stroke-width:1;" width="10" x="252.6943" y="141.5625"/><rect fill="#FFFFFF" height="29.1328" style="stroke:#181818;stroke-width:1;" width="10" x="374.8652" y="205.8281"/><line style="stroke:#181818;stroke-width:0.5;stroke-dasharray:5.0,5.0;" x1="23" x2="23" y1="81.2969" y2="311.2266"/><line style="stroke:#181818;stroke-width:0.5;stroke-dasharray:5.0,5.0;" x1="142.4438" x2="142.4438" y1="81.2969" y2="311.2266"/><line style="stroke:#181818;stroke-width:0.5;stroke-dasharray:5.0,5.0;" x1="257.4399" x2="257.4399" y1="81.2969" y2="311.2266"/><line style="stroke:#181818;stroke-width:0.5;stroke-dasharray:5.0,5.0;" x1="379.4648" x2="379.4648" y1="81.2969" y2="311.2266"/><text fill="#000000" font-family="sans-serif" font-size="14" lengthAdjust="spacing" textLength="31.9102" x="5" y="77.9951">User</text><ellipse cx="23.9551" cy="13.5" fill="#E2E2F0" rx="8" ry="8" style="stroke:#181818;stroke-width:0.5;"/><path d="M23.9551,21.5 L23.9551,48.5 M10.9551,29.5 L36.9551,29.5 M23.9551,48.5 L10.9551,63.5 M23.9551,48.5 L36.9551,63.5 " fill="none" style="stroke:#181818;stroke-width:0.5;"/><text fill="#000000" font-family="sans-serif" font-size="14" lengthAdjust="spacing" textLength="31.9102" x="5" y="323.2217">User</text><ellipse cx="23.9551" cy="335.0234" fill="#E2E2F0" rx="8" ry="8" style="stroke:#181818;stroke-width:0.5;"/><path d="M23.9551,343.0234 L23.9551,370.0234 M10.9551,351.0234 L36.9551,351.0234 M23.9551,370.0234 L10.9551,385.0234 M23.9551,370.0234 L36.9551,385.0234 " fill="none" style="stroke:#181818;stroke-width:0.5;"/><rect fill="#E2E2F0" height="30.2969" rx="2.5" ry="2.5" style="stroke:#181818;stroke-width:0.5;" width="77.1436" x="104.4438" y="50"/><text fill="#000000" font-family="sans-serif" font-size="14" lengthAdjust="spacing" textLength="63.1436" x="111.4438" y="69.9951">Web App</text><rect fill="#E2E2F0" height="30.2969" rx="2.5" ry="2.5" style="stroke:#181818;stroke-width:0.5;" width="77.1436" x="104.4438" y="310.2266"/><text fill="#000000" font-family="sans-serif" font-size="14" lengthAdjust="spacing" textLength="63.1436" x="111.4438" y="330.2217">Web App</text><rect fill="#E2E2F0" height="30.2969" rx="2.5" ry="2.5" style="stroke:#181818;stroke-width:0.5;" width="86.5088" x="214.4399" y="50"/><text fill="#000000" font-family="sans-serif" font-size="14" lengthAdjust="spacing" textLength="72.5088" x="221.4399" y="69.9951">API Server</text><rect fill="#E2E2F0" height="30.2969" rx="2.5" ry="2.5" style="stroke:#181818;stroke-width:0.5;" width="86.5088" x="214.4399" y="310.2266"/><text fill="#000000" font-family="sans-serif" font-size="14" lengthAdjust="spacing" textLength="72.5088" x="221.4399" y="330.2217">API Server</text><text fill="#000000" font-family="sans-serif" font-size="14" lengthAdjust="spacing" textLength="66.8008" x="343.4648" y="77.9951">Database</text><path d="M361.8652,29 C361.8652,19 379.8652,19 379.8652,19 C379.8652,19 397.8652,19 397.8652,29 L397.8652,55 C397.8652,65 379.8652,65 379.8652,65 C379.8652,65 361.8652,65 361.8652,55 L361.8652,29 " fill="#E2E2F0" style="stroke:#181818;stroke-width:1.5;"/><path d="M361.8652,29 C361.8652,39 379.8652,39 379.8652,39 C379.8652,39 397.8652,39 397.8652,29 " fill="none" style="stroke:#181818;stroke-width:1.5;"/><text fill="#000000" font-family="sans-serif" font-size="14" lengthAdjust="spacing" textLength="66.8008" x="343.4648" y="323.2217">Database</text><path d="M361.8652,336.5234 C361.8652,326.5234 379.8652,326.5234 379.8652,326.5234 C379.8652,326.5234 397.8652,326.5234 397.8652,336.5234 L397.8652,362.5234 C397.8652,372.5234 379.8652,372.5234 379.8652,372.5234 C379.8652,372.5234 361.8652,372.5234 361.8652,362.5234 L361.8652,336.5234 " fill="#E2E2F0" style="stroke:#181818;stroke-width:1.5;"/><path d="M361.8652,336.5234 C361.8652,346.5234 379.8652,346.5234 379.8652,346.5234 C379.8652,346.5234 397.8652,346.5234 397.8652,336.5234 " fill="none" style="stroke:#181818;stroke-width:1.5;"/><rect fill="#FFFFFF" height="180.7969" style="stroke:#181818;stroke-width:1;" width="10" x="138.0156" y="112.4297"/><rect fill="#FFFFFF" height="122.5313" style="stroke:#181818;stroke-width:1;" width="10" x="252.6943" y="141.5625"/><rect fill="#FFFFFF" height="29.1328" style="stroke:#181818;stroke-width:1;" width="10" x="374.8652" y="205.8281"/><polygon fill="#181818" points="126.0156,108.4297,136.0156,112.4297,126.0156,116.4297,130.0156,112.4297" style="stroke:#181818;stroke-width:1;"/><line style="stroke:#181818;stroke-width:1;" x1="23.9551" x2="132.0156" y1="112.4297" y2="112.4297"/><text fill="#000000" font-family="sans-serif" font-size="13" lengthAdjust="spacing" textLength="83.6875" x="30.9551" y="107.3638">Submit Form</text><polygon fill="#181818" points="240.6943,137.5625,250.6943,141.5625,240.6943,145.5625,244.6943,141.5625" style="stroke:#181818;stroke-width:1;"/><line style="stroke:#181818;stroke-width:1;" x1="148.0156" x2="246.6943" y1="141.5625" y2="141.5625"/><text fill="#000000" font-family="sans-serif" font-size="13" lengthAdjust="spacing" textLength="72.0586" x="155.0156" y="136.4966">POST /data</text><path d="M267,154.5625 L267,179.5625 L378,179.5625 L378,164.5625 L368,154.5625 L267,154.5625 " fill="#FEFFDD" style="stroke:#181818;stroke-width:0.5;"/><path d="M368,154.5625 L368,164.5625 L378,164.5625 L368,154.5625 " fill="#FEFFDD" style="stroke:#181818;stroke-width:0.5;"/><text fill="#000000" font-family="sans-serif" font-size="13" lengthAdjust="spacing" textLength="90.9683" x="273" y="171.6294">Validate input</text><polygon fill="#181818" points="362.8652,201.8281,372.8652,205.8281,362.8652,209.8281,366.8652,205.8281" style="stroke:#181818;stroke-width:1;"/><line style="stroke:#181818;stroke-width:1;" x1="262.6943" x2="368.8652" y1="205.8281" y2="205.8281"/><text fill="#000000" font-family="sans-serif" font-size="13" lengthAdjust="spacing" textLength="93.1709" x="269.6943" y="200.7622">INSERT record</text><polygon fill="#181818" points="273.6943,230.9609,263.6943,234.9609,273.6943,238.9609,269.6943,234.9609" style="stroke:#181818;stroke-width:1;"/><line style="stroke:#181818;stroke-width:1;stroke-dasharray:2.0,2.0;" x1="267.6943" x2="378.8652" y1="234.9609" y2="234.9609"/><text fill="#000000" font-family="sans-serif" font-size="13" lengthAdjust="spacing" textLength="18.7573" x="279.6943" y="229.895">OK</text><polygon fill="#181818" points="159.0156,260.0938,149.0156,264.0938,159.0156,268.0938,155.0156,264.0938" style="stroke:#181818;stroke-width:1;"/><line style="stroke:#181818;stroke-width:1;stroke-dasharray:2.0,2.0;" x1="153.0156" x2="256.6943" y1="264.0938" y2="264.0938"/><text fill="#000000" font-family="sans-serif" font-size="13" lengthAdjust="spacing" textLength="80.6787" x="165.0156" y="259.0278">201 Created</text><polygon fill="#181818" points="34.9551,289.2266,24.9551,293.2266,34.9551,297.2266,30.9551,293.2266" style="stroke:#181818;stroke-width:1;"/><line style="stroke:#181818;stroke-width:1;stroke-dasharray:2.0,2.0;" x1="28.9551" x2="142.0156" y1="293.2266" y2="293.2266"/><text fill="#000000" font-family="sans-serif" font-size="13" lengthAdjust="spacing" textLength="90.0605" x="40.9551" y="288.1606">Show success</text><!--SRC=[LOzDJyCm38Rl-HLMxnCVnnwGLWfIXSGgEk3i9XwBn9h8SSVVnqcPw2w9fVVHuzTe9J2y9s8JaSLR7t4Ig3vfX6sC5M3A_tMuxJiOYC_4Izvtng7WY8cWQl-c4hMDCLaEcuUigM6OnvCNU0vyCcZ5dr6eB33w5AhlQkXtmnvkidC5wHOp1PtOVnq5mc5XF_3RkmpuASwY7YsddhQfeNiTdjxsm6G3kt-JbceRs5oMxLwCetMuA2wDxs_lu959CxVcIftIMS5yejvs33-GPciffIiqnby0]--></g></svg>