<svg xmlns="http://www.w3.org/2000/svg" xmlns:xlink="http://www.w3.org/1999/xlink" contentStyleType="text/css" height="472px" preserveAspectRatio="none" style="width:361px;height:472px;background:#FFFFFF;" version="1.1" viewBox="0 0 361 472" width="361px" zoomAndPan="magnify"><defs/><g><rect fill="none" height="278" style="stroke:#000000;stroke-width:1.5;" width="344.6216" x="10" y="82.4297"/><rect fill="none" height="46.2656" style="stroke:#000000;stroke-width:1.5;" width="214.7236" x="140.0391" y="374.4297"/><line style="stroke:#181818;stroke-width:0.5;stroke-dasharray:5.0,5.0;" x1="47" x2="47" y1="36.2969" y2="437.6953"/><line style="stroke:#181818;stroke-width:0.5;stroke-dasharray:5.0,5.0;" x1="179.0391" x2="179.0391" y1="36.2969" y2="437.6953"/><line style="stroke:#181818;stroke-width:0.5;stroke-dasharray:5.0,5.0;" x1="315.0835" x2="315.0835" y1="36.2969" y2="437.6953"/><rect fill="#E2E2F0" height="30.2969" rx="2.5" ry="2.5" style="stroke:#181818;stroke-width:0.5;" width="54.5303" x="20" y="5"/><text fill="#000000" font-family="sans-serif" font-size="14" lengthAdjust="spacing" textLength="40.5303" x="27" y="24.9951">Client</text><rect fill="#E2E2F0" height="30.2969" rx="2.5" ry="2.5" style="stroke:#181818;stroke-width:0.5;" width="54.5303" x="20" y="436.6953"/><text fill="#000000" font-family="sans-serif" font-size="14" lengthAdjust="spacing" textLength="40.5303" x="27" y="456.6904">Client</text><rect fill="#E2E2F0" height="30.2969" rx="2.5" ry="2.5" style="stroke:#181818;stroke-width:0.5;" width="59.9102" x="150.0391" y="5"/><text fill="#000000" font-family="sans-serif" font-size="14" lengthAdjust="spacing" textLength="45.9102" x="157.0391" y="24.9951">Server</text><rect fill="#E2E2F0" height="30.2969" rx="2.5" ry="2.5" style="stroke:#181818;stroke-width:0.5;" width="59.9102" x="150.0391" y="436.6953"/><text fill="#000000" font-family="sans-serif" font-size="14" lengthAdjust="spacing" textLength="45.9102" x="157.0391" y="456.6904">Server</text><rect fill="#E2E2F0" height="30.2969" rx="2.5" ry="2.5" style="stroke:#181818;stroke-width:0.5;" width="57.5381" x="287.0835" y="5"/><text fill="#000000" font-family="sans-serif" font-size="14" lengthAdjust="spacing" textLength="43.5381" x="294.0835" y="24.9951">Cache</text><rect fill="#E2E2F0" height="30.2969" rx="2.5" ry="2.5" style="stroke:#181818;stroke-width:0.5;" width="57.5381" x="287.0835" y="436.6953"/><text fill="#000000" font-family="sans-serif" font-size="14" lengthAdjust="spacing" textLength="43.5381" x="294.0835" y="456.6904">Cache</text><polygon fill="#181818" points="167.9941,63.4297,177.9941,67.4297,167.9941,71.4297,171.9941,67.4297" style="stroke:#181818;stroke-width:1;"/><line style="stroke:#181818;stroke-width:1;" x1="47.2651" x2="173.9941" y1="67.4297" y2="67.4297"/><text fill="#000000" font-family="sans-serif" font-size="13" lengthAdjust="spacing" textLength="91.5396" x="54.2651" y="62.3638">GET /resource</text><path d="M10,82.4297 L74.4429,82.4297 L74.4429,89.5625 L64.4429,99.5625 L10,99.5625 L10,82.4297 " fill="#EEEEEE" style="stroke:#000000;stroke-width:1.5;"/><rect fill="none" height="278" style="stroke:#000000;stroke-width:1.5;" width="344.6216" x="10" y="82.4297"/><text fill="#000000" font-family="sans-serif" font-size="13" font-weight="bold" lengthAdjust="spacing" textLength="19.4429" x="25" y="95.4966">alt</text><text fill="#000000" font-family="sans-serif" font-size="11" font-weight="bold" lengthAdjust="spacing" textLength="68.0518" x="89.4429" y="94.6401">[Cache hit]</text><polygon fill="#181818" points="303.8525,116.6953,313.8525,120.6953,303.8525,124.6953,307.8525,120.6953" style="stroke:#181818;stroke-width:1;"/><line style="stroke:#181818;stroke-width:1;" x1="179.9941" x2="309.8525" y1="120.6953" y2="120.6953"/><text fill="#000000" font-family="sans-serif" font-size="13" lengthAdjust="spacing" textLength="76.9019" x="186.9941" y="115.6294">lookup(key)</text><polygon fill="#181818" points="190.9941,145.8281,180.9941,149.8281,190.9941,153.8281,186.9941,149.8281" style="stroke:#181818;stroke-width:1;"/><line style="stroke:#181818;stroke-width:1;stroke-dasharray:2.0,2.0;" x1="184.9941" x2="314.8525" y1="149.8281" y2="149.8281"/><text fill="#000000" font-family="sans-serif" font-size="13" lengthAdjust="spacing" textLength="80.1646" x="196.9941" y="144.7622">cached data</text><polygon fill="#181818" points="58.2651,174.9609,48.2651,178.9609,58.2651,182.9609,54.2651,178.9609" style="stroke:#181818;stroke-width:1;"/><line style="stroke:#181818;stroke-width:1;stroke-dasharray:2.0,2.0;" x1="52.2651" x2="178.9941" y1="178.9609" y2="178.9609"/><text fill="#000000" font-family="sans-serif" font-size="13" lengthAdjust="spacing" textLength="108.729" x="64.2651" y="173.895">200 OK (cached)</text><line style="stroke:#000000;stroke-width:1;stroke-dasharray:2.0,2.0;" x1="10" x2="354.6216" y1="187.9609" y2="187.9609"/><text fill="#000000" font-family="sans-serif" font-size="11" font-weight="bold" lengthAdjust="spacing" textLength="79.519" x="15" y="198.1714">[Cache miss]</text><polygon fill="#181818" points="303.8525,218.8984,313.8525,222.8984,303.8525,226.8984,307.8525,222.8984" style="stroke:#181818;stroke-width:1;"/><line style="stroke:#181818;stroke-width:1;" x1="179.9941" x2="309.8525" y1="222.8984" y2="222.8984"/><text fill="#000000" font-family="sans-serif" font-size="13" lengthAdjust="spacing" textLength="76.9019" x="186.9941" y="217.8325">lookup(key)</text><polygon fill="#181818" points="190.9941,248.0313,180.9941,252.0313,190.9941,256.0313,186.9941,252.0313" style="stroke:#181818;stroke-width:1;"/><line style="stroke:#181818;stroke-width:1;stroke-dasharray:2.0,2.0;" x1="184.9941" x2="314.8525" y1="252.0313" y2="252.0313"/><text fill="#000000" font-family="sans-serif" font-size="13" lengthAdjust="spacing" textLength="23.7021" x="196.9941" y="246.9653">null</text><line style="stroke:#181818;stroke-width:1;" x1="179.9941" x2="221.9941" y1="281.1641" y2="281.1641"/><line style="stroke:#181818;stroke-width:1;" x1="221.9941" x2="221.9941" y1="281.1641" y2="294.1641"/><line style="stroke:#181818;stroke-width:1;" x1="180.9941" x2="221.9941" y1="294.1641" y2="294.1641"/><polygon fill="#181818" points="190.9941,290.1641,180.9941,294.1641,190.9941,298.1641,186.9941,294.1641" style="stroke:#181818;stroke-width:1;"/><text fill="#000000" font-family="sans-serif" font-size="13" lengthAdjust="spacing" textLength="98.5474" x="186.9941" y="276.0981">compute result</text><polygon fill="#181818" points="303.8525,319.2969,313.8525,323.2969,303.8525,327.2969,307.8525,323.2969" style="stroke:#181818;stroke-width:1;"/><line style="stroke:#181818;stroke-width:1;" x1="179.9941" x2="309.8525" y1="323.2969" y2="323.2969"/><text fill="#000000" font-family="sans-serif" font-size="13" lengthAdjust="spacing" textLength="111.8584" x="186.9941" y="318.231">store(key, result)</text><polygon fill="#181818" points="58.2651,348.4297,48.2651,352.4297,58.2651,356.4297,54.2651,352.4297" style="stroke:#181818;stroke-width:1;"/><line style="stroke:#181818;stroke-width:1;stroke-dasharray:2.0,2.0;" x1="52.2651" x2="178.9941" y1="352.4297" y2="352.4297"/><text fill="#000000" font-family="sans-serif" font-size="13" lengthAdjust="spacing" textLength="47.7026" x="64.2651" y="347.3638">200 OK</text><path d="M140.0391,374.4297 L216.6631,374.4297 L216.6631,381.5625 L206.6631,391.5625 L140.0391,391.5625 L140.0391,374.4297 " fill="#EEEEEE" style="stroke:#000000;stroke-width:1.5;"/><rect fill="none" height="46.2656" style="stroke:#000000;stroke-width:1.5;" width="214.7236" x="140.0391" y="374.4297"/><text fill="#000000" font-family="sans-serif" font-size="13" font-weight="bold" lengthAdjust="spacing" textLength="31.624" x="155.0391" y="387.4966">loop</text><text fill="#000000" font-family="sans-serif" font-size="11" font-weight="bold" lengthAdjust="spacing" textLength="118.0996" x="231.6631" y="386.6401">[Every 60 seconds]</text><polygon fill="#181818" points="303.8525,408.6953,313.8525,412.6953,303.8525,416.6953,307.8525,412.6953" style="stroke:#181818;stroke-width:1;"/><line style="stroke:#181818;stroke-width:1;" x1="179.9941" x2="309.8525" y1="412.6953" y2="412.6953"/><text fill="#000000" font-family="sans-serif" font-size="13" lengthAdjust="spacing" textLength="104.7363" x="186.9941" y="407.6294">cleanup expired</text><!--SRC=[dO-z2i8m58NtFCKTBLWi3WuTN4fnS73G5mZ9XOQcISYFsBStQOEqGXsyu-4xvvvZgFM22KELXqOAL9wOXNH7-qIxaXhAEYHaXg4yPwQ6I_k0WqMdWsKHe3Apq0bF8DuC9ikaro2rxeFPzJWM4p3ZvIAJ9OK3fvwk8bB6LA26OrN1xGgx6Iq8IeSvQH3E_VjP1Ic_l9zIUZ318yIjGMvCSrvRJFdxZ1M_-nDKd91Ooq0RYH5E5JXaMl6D1KmYLS40leomo9F_3G00]--></g></svg>