<svg xmlns="http://www.w3.org/2000/svg" xmlns:xlink="http://www.w3.org/1999/xlink" contentStyleType="text/css" height="786px" preserveAspectRatio="none" style="width:316px;height:786px;background:#FFFFFF;" version="1.1" viewBox="0 0 316 786" width="316px" zoomAndPan="magnify"><defs/><g><path d="M19.5,87 L290.8712,87 A12.5,12.5 0 0 1 303.3712,99.5 L303.3712,113.2969 L7,113.2969 L7,99.5 A12.5,12.5 0 0 1 19.5,87 " fill="#F1F1F1" style="stroke:#F1F1F1;stroke-width:1;"/><rect fill="none" height="483.5969" rx="12.5" ry="12.5" style="stroke:#181818;stroke-width:0.5;" width="296.3712" x="7" y="87"/><line style="stroke:#181818;stroke-width:0.5;" x1="7" x2="303.3712" y1="113.2969" y2="113.2969"/><text fill="#000000" font-family="sans-serif" font-size="14" lengthAdjust="spacing" textLength="43.5518" x="133.4097" y="104.9951">Active</text><path d="M31.5,125.2969 L168.498,125.2969 A12.5,12.5 0 0 1 180.998,137.7969 L180.998,151.5938 L19,151.5938 L19,137.7969 A12.5,12.5 0 0 1 31.5,125.2969 " fill="#F1F1F1" style="stroke:#F1F1F1;stroke-width:1;"/><rect fill="none" height="229.2969" rx="12.5" ry="12.5" style="stroke:#181818;stroke-width:0.5;" width="161.998" x="19" y="125.2969"/><line style="stroke:#181818;stroke-width:0.5;" x1="19" x2="180.998" y1="151.5938" y2="151.5938"/><text fill="#000000" font-family="sans-serif" font-size="14" lengthAdjust="spacing" textLength="34.6787" x="82.6597" y="143.292">Error</text><ellipse cx="70.76" cy="172.5938" fill="#222222" rx="10" ry="10" style="stroke:#222222;stroke-width:1;"/><g id="Active.Error.Retrying"><rect fill="#F1F1F1" height="50" rx="12.5" ry="12.5" style="stroke:#181818;stroke-width:0.5;" width="79.5205" x="31" y="219.5938"/><line style="stroke:#181818;stroke-width:0.5;" x1="31" x2="110.5205" y1="245.8906" y2="245.8906"/><text fill="#000000" font-family="sans-serif" font-size="14" lengthAdjust="spacing" textLength="59.5205" x="41" y="237.5889">Retrying</text></g><ellipse cx="70.76" cy="333.5938" fill="none" rx="11" ry="11" style="stroke:#222222;stroke-width:1;"/><ellipse cx="70.76" cy="333.5938" fill="#222222" rx="6" ry="6" style="stroke:#222222;stroke-width:1;"/><!--link *start*Error to Retrying--><g id="link_*start*Error_Retrying"><path d="M70.76,183.0338 C70.76,192.2938 70.76,200.7838 70.76,213.2738 " fill="none" id="*start*Error-to-Retrying" style="stroke:#181818;stroke-width:1;"/><polygon fill="#181818" points="70.76,219.2738,74.76,210.2738,70.76,214.2738,66.76,210.2738,70.76,219.2738" style="stroke:#181818;stroke-width:1;"/></g><!--link Retrying to Retrying--><g id="link_Retrying_Retrying"><path d="M110.98,236.5537 C121.02,237.1137 128.52,239.7938 128.52,244.5938 C128.52,249.3938 127.0107,251.7396 116.9707,252.2996 " fill="none" id="Retrying-to-Retrying" style="stroke:#181818;stroke-width:1;"/><polygon fill="#181818" points="110.98,252.6338,120.1888,256.1263,115.9722,252.3553,119.7433,248.1387,110.98,252.6338" style="stroke:#181818;stroke-width:1;"/><text fill="#000000" font-family="sans-serif" font-size="13" lengthAdjust="spacing" textLength="31.478" x="134.52" y="249.1606">retry</text></g><!--link Retrying to *end*Error--><g id="link_Retrying_*end*Error"><path d="M70.76,269.8238 C70.76,287.1238 70.76,303.5138 70.76,316.3438 " fill="none" id="Retrying-to-*end*Error" style="stroke:#181818;stroke-width:1;"/><polygon fill="#181818" points="70.76,322.3438,74.76,313.3438,70.76,317.3438,66.76,313.3438,70.76,322.3438" style="stroke:#181818;stroke-width:1;"/><text fill="#000000" font-family="sans-serif" font-size="13" lengthAdjust="spacing" textLength="74.623" x="71.76" y="300.6606">max retries</text></g><ellipse cx="212" cy="239.9469" fill="#222222" rx="10" ry="10" style="stroke:#222222;stroke-width:1;"/><g id="Active.Idle"><rect fill="#F1F1F1" height="50" rx="12.5" ry="12.5" style="stroke:#181818;stroke-width:0.5;" width="50" x="172" y="407.5969"/><line style="stroke:#181818;stroke-width:0.5;" x1="172" x2="222" y1="433.8938" y2="433.8938"/><text fill="#000000" font-family="sans-serif" font-size="14" lengthAdjust="spacing" textLength="25.5186" x="184.2407" y="425.592">Idle</text></g><g id="Active.Processing"><rect fill="#F1F1F1" height="50" rx="12.5" ry="12.5" style="stroke:#181818;stroke-width:0.5;" width="95.3115" x="82.34" y="510.5969"/><line style="stroke:#181818;stroke-width:0.5;" x1="82.34" x2="177.6515" y1="536.8938" y2="536.8938"/><text fill="#000000" font-family="sans-serif" font-size="14" lengthAdjust="spacing" textLength="75.3115" x="92.34" y="528.592">Processing</text></g><!--link *start*Active to Idle--><g id="link_*start*Active_Idle"><path d="M211.26,250.4069 C209.01,278.9569 202.7094,358.9553 199.3794,401.3853 " fill="none" id="*start*Active-to-Idle" style="stroke:#181818;stroke-width:1;"/><polygon fill="#181818" points="198.91,407.3669,203.6019,398.7074,199.3012,402.3822,195.6264,398.0815,198.91,407.3669" style="stroke:#181818;stroke-width:1;"/></g><!--link Idle to Processing--><g id="link_Idle_Processing"><path d="M214.53,457.9869 C220.25,469.0869 223.61,482.0669 217,492.5969 C208.17,506.6569 198.6942,513.809 183.6042,520.129 " fill="none" id="Idle-to-Processing" style="stroke:#181818;stroke-width:1;"/><polygon fill="#181818" points="178.07,522.4469,187.9166,522.6596,182.6819,520.5153,184.8261,515.2806,178.07,522.4469" style="stroke:#181818;stroke-width:1;"/><text fill="#000000" font-family="sans-serif" font-size="13" lengthAdjust="spacing" textLength="71.7412" x="221.63" y="488.6638">receive job</text></g><!--link Processing to Idle--><g id="link_Processing_Idle"><path d="M123.03,510.2469 C121.2,499.0369 121.14,485.9469 127,475.5969 C132.06,466.6569 148.4834,457.0502 166.4234,448.0802 " fill="none" id="Processing-to-Idle" style="stroke:#181818;stroke-width:1;"/><polygon fill="#181818" points="171.79,445.3969,161.9513,445.8441,167.3179,447.6329,165.529,452.9995,171.79,445.3969" style="stroke:#181818;stroke-width:1;"/><text fill="#000000" font-family="sans-serif" font-size="13" lengthAdjust="spacing" textLength="84.6714" x="128" y="488.6638">job complete</text></g><!--link Processing to Error--><g id="link_Processing_Error"><path d="M122.15,510.3669 C120.54,504.5969 119.03,498.4169 118,492.5969 C110.11,447.9569 106.0054,404.2669 103.5054,360.9169 " fill="none" id="Processing-to-Error" style="stroke:#181818;stroke-width:1;"/><polygon fill="#181818" points="103.16,354.9269,99.6848,364.1422,103.4479,359.9186,107.6715,363.6816,103.16,354.9269" style="stroke:#181818;stroke-width:1;"/><text fill="#000000" font-family="sans-serif" font-size="13" lengthAdjust="spacing" textLength="41.3486" x="113.24" y="437.1638">failure</text></g><!--link Error to Idle--><g id="link_Error_Idle"><path d="M112.86,354.9169 C117.15,367.2369 122.74,379.0969 130,389.5969 C140.15,404.2769 151.8569,412.2888 166.2469,419.1688 " fill="none" id="Error-to-Idle" style="stroke:#181818;stroke-width:1;"/><polygon fill="#181818" points="171.66,421.7569,165.2657,414.266,167.1491,419.6002,161.8149,421.4835,171.66,421.7569" style="stroke:#181818;stroke-width:1;"/><text fill="#000000" font-family="sans-serif" font-size="13" lengthAdjust="spacing" textLength="65.73" x="131" y="385.6638">recovered</text></g><ellipse cx="155.19" cy="16" fill="#222222" rx="10" ry="10" style="stroke:#222222;stroke-width:1;"/><g id="Shutdown"><rect fill="#F1F1F1" height="50" rx="12.5" ry="12.5" style="stroke:#181818;stroke-width:0.5;" width="89.8975" x="110.24" y="647.6"/><line style="stroke:#181818;stroke-width:0.5;" x1="110.24" x2="200.1375" y1="673.8969" y2="673.8969"/><text fill="#000000" font-family="sans-serif" font-size="14" lengthAdjust="spacing" textLength="69.8975" x="120.24" y="665.5951">Shutdown</text></g><ellipse cx="155.19" cy="769.6" fill="none" rx="11" ry="11" style="stroke:#222222;stroke-width:1;"/><ellipse cx="155.19" cy="769.6" fill="#222222" rx="6" ry="6" style="stroke:#222222;stroke-width:1;"/><!--link *start* to Active--><g id="link_*start*_Active"><path d="M155.19,26.3 C155.19,38.02 155.19,53.9 155.19,80.75 " fill="none" id="*start*-to-Active" style="stroke:#181818;stroke-width:1;"/><polygon fill="#181818" points="155.19,86.75,159.19,77.75,155.19,81.75,151.19,77.75,155.19,86.75" style="stroke:#181818;stroke-width:1;"/></g><!--link Active to Shutdown--><g id="link_Active_Shutdown"><path d="M155.19,570.9 C155.19,601.83 155.19,623.05 155.19,641.36 " fill="none" id="Active-to-Shutdown" style="stroke:#181818;stroke-width:1;"/><polygon fill="#181818" points="155.19,647.36,159.19,638.36,155.19,642.36,151.19,638.36,155.19,647.36" style="stroke:#181818;stroke-width:1;"/><text fill="#000000" font-family="sans-serif" font-size="13" lengthAdjust="spacing" textLength="70.6621" x="156.19" y="613.6669">stop signal</text></g><!--link Shutdown to *end*--><g id="link_Shutdown_*end*"><path d="M155.19,698.06 C155.19,717.64 155.19,738.09 155.19,752.4 " fill="none" id="Shutdown-to-*end*" style="stroke:#181818;stroke-width:1;"/><polygon fill="#181818" points="155.19,758.4,159.19,749.4,155.19,753.4,151.19,749.4,155.19,758.4" style="stroke:#181818;stroke-width:1;"/></g><!--SRC=[RP0z3i8m38NtdC8pKY_G0Oc1WGt1M364r9IWjAcSj80GTyVvQLMaPdBU-nm_fzfSe2Ysi5DUZoY4yz9Zli5709yg8uVQO1H24PKZMONEwQw14WWLXgQ7lKPgOKxTJB4BohQzGOzhs9x84dCtgSr072WmALIoKgPbhXDwUdF_R4p2dniJShbEXRTAQEKhGXfTnBvfV1gyM89NjICIreA9_5V1Fjy7NzjdnuZpjWUdcquQCSjvqWy0]--></g></svg>