<svg xmlns="http://www.w3.org/2000/svg" xmlns:xlink="http://www.w3.org/1999/xlink" contentStyleType="text/css" height="372px" preserveAspectRatio="none" style="width:594px;height:372px;background:#FFFFFF;" version="1.1" viewBox="0 0 594 372" width="594px" zoomAndPan="magnify"><defs/><g><!--cluster Online Store--><g id="cluster_Online Store"><rect fill="none" height="359" rx="2.5" ry="2.5" style="stroke:#181818;stroke-width:1;" width="467.36" x="121" y="7"/><text fill="#000000" font-family="sans-serif" font-size="14" font-weight="bold" lengthAdjust="spacing" textLength="98.5947" x="305.3826" y="21.9951">Online Store</text></g><g id="elem_UC1"><ellipse cx="218.056" cy="60.0032" fill="#F1F1F1" rx="79.266" ry="18.2532" style="stroke:#181818;stroke-width:0.5;"/><text fill="#000000" font-family="sans-serif" font-size="14" lengthAdjust="spacing" textLength="116.7373" x="157.7398" y="63.4653">Browse Products</text></g><g id="elem_UC2"><ellipse cx="218.0596" cy="129.0019" fill="#F1F1F1" rx="66.0096" ry="15.6019" style="stroke:#181818;stroke-width:0.5;"/><text fill="#000000" font-family="sans-serif" font-size="14" lengthAdjust="spacing" textLength="81.7031" x="174.2081" y="132.7495">Place Order</text></g><g id="elem_UC3"><ellipse cx="218.0632" cy="195.0046" fill="#F1F1F1" rx="66.5232" ry="15.7046" style="stroke:#181818;stroke-width:0.5;"/><text fill="#000000" font-family="sans-serif" font-size="14" lengthAdjust="spacing" textLength="83.1729" x="173.4768" y="198.7522">Track Order</text></g><g id="elem_UC4"><ellipse cx="218.064" cy="264.0008" fill="#F1F1F1" rx="81.054" ry="18.6108" style="stroke:#181818;stroke-width:0.5;"/><text fill="#000000" font-family="sans-serif" font-size="14" lengthAdjust="spacing" textLength="121.0645" x="156.256" y="267.2642">Manage Products</text></g><g id="elem_UC5"><ellipse cx="218.0601" cy="334.002" fill="#F1F1F1" rx="69.8101" ry="16.362" style="stroke:#181818;stroke-width:0.5;"/><text fill="#000000" font-family="sans-serif" font-size="14" lengthAdjust="spacing" textLength="92.3125" x="168.9039" y="337.7496">View Reports</text></g><g id="elem_UC6"><ellipse cx="498.2329" cy="129.0046" fill="#F1F1F1" rx="74.1229" ry="17.2246" style="stroke:#181818;stroke-width:0.5;"/><text fill="#000000" font-family="sans-serif" font-size="14" lengthAdjust="spacing" textLength="103.749" x="443.3584" y="132.7521">Make Payment</text></g><!--entity Customer--><g id="elem_Customer"><ellipse cx="40.002" cy="99.35" fill="#F1F1F1" rx="8" ry="8" style="stroke:#181818;stroke-width:0.5;"/><path d="M40.002,107.35 L40.002,134.35 M27.002,115.35 L53.002,115.35 M40.002,134.35 L27.002,149.35 M40.002,134.35 L53.002,149.35 " fill="none" style="stroke:#181818;stroke-width:0.5;"/><text fill="#000000" font-family="sans-serif" font-size="14" lengthAdjust="spacing" textLength="68.0039" x="6" y="163.8451">Customer</text></g><!--entity Admin--><g id="elem_Admin"><ellipse cx="40.0021" cy="272.35" fill="#F1F1F1" rx="8" ry="8" style="stroke:#181818;stroke-width:0.5;"/><path d="M40.0021,280.35 L40.0021,307.35 M27.0021,288.35 L53.0021,288.35 M40.0021,307.35 L27.0021,322.35 M40.0021,307.35 L53.0021,322.35 " fill="none" style="stroke:#181818;stroke-width:0.5;"/><text fill="#000000" font-family="sans-serif" font-size="14" lengthAdjust="spacing" textLength="44.8643" x="17.57" y="336.8451">Admin</text></g><!--link Customer to UC1--><g id="link_Customer_UC1"><path d="M74.41,112.87 C86.46,107.27 100.24,101.12 113,96 C131.63,88.53 146.8067,83.0537 164.9167,76.9237 " fill="none" id="Customer-to-UC1" style="stroke:#181818;stroke-width:1;"/><polygon fill="#181818" points="170.6,75,160.7927,74.0967,165.864,76.6031,163.3576,81.6744,170.6,75" style="stroke:#181818;stroke-width:1;"/></g><!--link Customer to UC2--><g id="link_Customer_UC2"><path d="M74.12,129 C95.93,129 119.24,129 145.63,129 " fill="none" id="Customer-to-UC2" style="stroke:#181818;stroke-width:1;"/><polygon fill="#181818" points="151.63,129,142.63,125,146.63,129,142.63,133,151.63,129" style="stroke:#181818;stroke-width:1;"/></g><!--link Customer to UC3--><g id="link_Customer_UC3"><path d="M74.34,145.31 C86.38,150.93 100.18,157.05 113,162 C132.89,169.68 149.6602,175.2321 168.6402,181.0121 " fill="none" id="Customer-to-UC3" style="stroke:#181818;stroke-width:1;"/><polygon fill="#181818" points="174.38,182.76,166.9357,176.3116,169.5969,181.3034,164.6051,183.9646,174.38,182.76" style="stroke:#181818;stroke-width:1;"/></g><!--link UC2 to UC6--><g id="link_UC2_UC6"><path d="M284.28,129 C326.19,129 374.71,129 418.09,129 " fill="none" id="UC2-to-UC6" style="stroke:#181818;stroke-width:1;stroke-dasharray:7.0,7.0;"/><polygon fill="#181818" points="424.09,129,415.09,125,419.09,129,415.09,133,424.09,129" style="stroke:#181818;stroke-width:1;"/><text fill="#000000" font-family="sans-serif" font-size="13" lengthAdjust="spacing" textLength="63.0068" x="330.11" y="125.0669">&#171;include&#187;</text></g><!--link Admin to UC4--><g id="link_Admin_UC4"><path d="M62.59,297.34 C86.19,292.25 119.1452,285.1366 151.9752,278.0466 " fill="none" id="Admin-to-UC4" style="stroke:#181818;stroke-width:1;"/><polygon fill="#181818" points="157.84,276.78,148.1984,274.77,152.9527,277.8355,149.8872,282.5897,157.84,276.78" style="stroke:#181818;stroke-width:1;"/></g><!--link Admin to UC5--><g id="link_Admin_UC5"><path d="M62.59,305.92 C87.2,310.4 122.4668,316.8064 156.1168,322.9264 " fill="none" id="Admin-to-UC5" style="stroke:#181818;stroke-width:1;"/><polygon fill="#181818" points="162.02,324,153.881,318.4541,157.1007,323.1053,152.4495,326.325,162.02,324" style="stroke:#181818;stroke-width:1;"/></g><!--SRC=[PT1HYy8m303Wz_oAiFS9vzG7aO7wV4myp_VGnbdisYFj43dyxrTb2jtrfKtoaPHOFaMC7iMqvuZQ2Ajel0DIqGjk-n1znpA4QzqP1_0mv5hBM3JE6iVubQfSu2zWEdrWHI4LD-AlwTw9rxsAeK0A-BtzoD7Eac9iHBCCO9g3Wv2wPA3AmISvQl-DcUNeQFYAU_xnyXRpSPjBQaAtZbqSn0Bk0AyTO5dMp- -F4jDneeAKnCdayLxW4bShuvJjDTSrm7E50vnbqVmF]--></g></svg>